<?xml version="1.0" encoding="utf-8"?>
<!-- Generator: Adobe Illustrator 16.0.3, SVG Export Plug-In . SVG Version: 6.00 Build 0)  -->
<!DOCTYPE svg PUBLIC "-//W3C//DTD SVG 1.1//EN" "http://www.w3.org/Graphics/SVG/1.1/DTD/svg11.dtd">
<svg version="1.1" id="Capa_1" xmlns="http://www.w3.org/2000/svg" xmlns:xlink="http://www.w3.org/1999/xlink" x="0px" y="0px"
	 width="29.939px" height="29.93px" viewBox="40.311 32.785 29.939 29.93" enable-background="new 40.311 32.785 29.939 29.93"
	 xml:space="preserve">
<path fill="#169133" d="M86.578,40.542"/>
<g>
	<g>
		<circle cx="63.124" cy="40.086" r="1.75"/>
		<g>
			<g>
				<path d="M55.313,40.086c-4.347,0-7.86,3.524-7.86,7.869c0,4.347,3.514,7.86,7.86,7.86c4.345,0,7.859-3.514,7.859-7.86
					C63.172,43.61,59.657,40.086,55.313,40.086z"/>
			</g>
			<g>
				<path d="M55.484,55.814L55.484,55.814z"/>
				<path d="M63.124,50.261L63.124,50.261z"/>
				<path d="M60.206,41.286L60.206,41.286z"/>
				<path d="M50.691,41.595L50.691,41.595z"/>
				<path d="M47.835,50.379L47.835,50.379z"/>
			</g>
		</g>
		<path fill="none" d="M61.34,47.781"/>
		<path fill="none" d="M63.345,47.781"/>
		<path d="M62.41,32.785H48.15c-4.33,0-7.84,3.51-7.84,7.83v14.271c0,4.319,3.51,7.829,7.84,7.829h14.26
			c4.33,0,7.84-3.51,7.84-7.829V40.615C70.25,36.295,66.74,32.785,62.41,32.785z M67.29,53.705c0,3.36-2.71,6.07-6.069,6.07h-11.84
			c-3.351,0-6.07-2.71-6.07-6.07v-11.85c0-3.36,2.72-6.08,6.07-6.08h11.84c3.359,0,6.069,2.72,6.069,6.08V53.705z"/>
	</g>
	<path fill="#169133" d="M67.718,39.707"/>
	<path fill="#FFFFFF" d="M50.467,47.955"/>
	<path fill="#FFFFFF" d="M47.452,47.955"/>
	<circle fill="#FFFFFF" cx="55.312" cy="47.95" r="4.998"/>
</g>
</svg>
