<?xml version="1.0" encoding="utf-8"?>
<!-- Generator: Adobe Illustrator 16.0.3, SVG Export Plug-In . SVG Version: 6.00 Build 0)  -->
<!DOCTYPE svg PUBLIC "-//W3C//DTD SVG 1.1//EN" "http://www.w3.org/Graphics/SVG/1.1/DTD/svg11.dtd">
<svg version="1.1" id="Capa_1" xmlns="http://www.w3.org/2000/svg" xmlns:xlink="http://www.w3.org/1999/xlink" x="0px" y="0px"
	 width="530px" height="196.5px" viewBox="0 0 530 196.5" enable-background="new 0 0 530 196.5" xml:space="preserve">
<path fill="#F8120D" d="M36.5,42.75c46.55,0,98.083,0,103.587,2.151c8.17,3.193,21.746,13.016,20.413,30.599
	c-0.456,6.008,0.091,15.5-6.25,23.278c-4.702,5.767-28.25,33.472-29,33.972s22.435,0.146,29.917,0.5
	c1.312,0.062,2.917,0.667,3.083,4.25c0.164,3.532,0.539,17.462,0,23.25c-0.159,1.709-0.75,3.5-5.75,3.75s-88.5,0-88.5,0
	s-2-0.5-2.25-2.5s0-90.25,0-90.25h-23.5c0,0-1.5,0-1.75-2S36.5,42.75,36.5,42.75z"/>
<circle fill="none" stroke="#000000" stroke-width="5" stroke-miterlimit="10" cx="99.353" cy="98.778" r="94.25"/>
<path fill="#FFFFFF" d="M90.5,72v58h1.25c0,0,39-47.5,39.25-49.5s0-5.75,0-5.75s0.458-2.774-2-2.75
	C125.968,72.029,125.292,71.997,90.5,72z"/>
<path d="M250.461,63.69c0,0.413-0.021,0.771-0.065,1.075c-0.044,0.305-0.114,0.549-0.212,0.733
	c-0.098,0.185-0.217,0.321-0.358,0.408c-0.142,0.086-0.299,0.13-0.473,0.13h-11.861v36.561c0,0.174-0.044,0.326-0.13,0.456
	c-0.087,0.13-0.24,0.234-0.456,0.31c-0.217,0.076-0.505,0.141-0.864,0.196c-0.358,0.054-0.81,0.082-1.352,0.082
	c-0.521,0-0.967-0.027-1.336-0.082c-0.371-0.055-0.664-0.12-0.88-0.196c-0.217-0.076-0.37-0.179-0.457-0.31
	c-0.087-0.13-0.13-0.282-0.13-0.456V66.036h-11.861c-0.175,0-0.331-0.043-0.473-0.13c-0.142-0.087-0.256-0.223-0.342-0.408
	c-0.087-0.184-0.159-0.428-0.212-0.733c-0.054-0.304-0.082-0.663-0.082-1.075s0.027-0.777,0.082-1.092
	c0.053-0.314,0.125-0.57,0.212-0.766c0.086-0.196,0.2-0.337,0.342-0.424c0.142-0.086,0.298-0.13,0.473-0.13h29.327
	c0.174,0,0.331,0.044,0.473,0.13c0.141,0.087,0.261,0.228,0.358,0.424c0.098,0.195,0.167,0.451,0.212,0.766
	C250.44,62.914,250.461,63.278,250.461,63.69z"/>
<path d="M275.031,86.695c0,0.848-0.213,1.45-0.638,1.809c-0.426,0.358-0.911,0.538-1.458,0.538h-19.313
	c0,1.629,0.164,3.096,0.49,4.399c0.328,1.304,0.874,2.423,1.638,3.356c0.764,0.934,1.758,1.651,2.979,2.151
	c1.222,0.5,2.717,0.75,4.486,0.75c1.397,0,2.641-0.114,3.732-0.342c1.092-0.228,2.036-0.483,2.833-0.766
	c0.797-0.283,1.452-0.538,1.965-0.766c0.513-0.228,0.901-0.342,1.162-0.342c0.153,0,0.29,0.038,0.409,0.114
	c0.121,0.076,0.214,0.19,0.279,0.342c0.065,0.152,0.114,0.364,0.147,0.635c0.032,0.271,0.05,0.603,0.05,0.994
	c0,0.282-0.012,0.527-0.033,0.733c-0.022,0.207-0.049,0.391-0.082,0.554c-0.033,0.163-0.087,0.31-0.163,0.44
	c-0.077,0.13-0.174,0.255-0.293,0.375c-0.12,0.12-0.473,0.315-1.059,0.586s-1.348,0.538-2.281,0.798
	c-0.934,0.261-2.016,0.494-3.242,0.701c-1.227,0.207-2.537,0.31-3.926,0.31c-2.412,0-4.525-0.337-6.338-1.01
	c-1.814-0.673-3.34-1.672-4.578-2.998c-1.238-1.325-2.172-2.987-2.803-4.986c-0.631-1.999-0.945-4.322-0.945-6.973
	c0-2.52,0.326-4.785,0.978-6.794s1.591-3.715,2.819-5.116c1.226-1.401,2.709-2.477,4.448-3.226c1.738-0.75,3.682-1.125,5.833-1.125
	c2.302,0,4.264,0.37,5.882,1.108c1.618,0.739,2.949,1.732,3.992,2.981c1.043,1.25,1.809,2.716,2.297,4.399
	c0.489,1.684,0.733,3.481,0.733,5.393V86.695z M269.622,85.099c0.065-2.823-0.564-5.039-1.886-6.647
	c-1.322-1.607-3.284-2.411-5.885-2.411c-1.333,0-2.502,0.25-3.507,0.75c-1.006,0.5-1.848,1.162-2.524,1.988
	c-0.678,0.826-1.202,1.787-1.574,2.884c-0.372,1.097-0.578,2.243-0.623,3.438H269.622z"/>
<path d="M304.293,98.166c0,0.369-0.011,0.69-0.033,0.961c-0.021,0.271-0.06,0.5-0.113,0.684c-0.055,0.185-0.12,0.348-0.196,0.489
	c-0.075,0.141-0.249,0.348-0.521,0.619c-0.272,0.271-0.733,0.608-1.386,1.01c-0.651,0.402-1.385,0.76-2.199,1.075
	s-1.7,0.57-2.656,0.766c-0.957,0.195-1.944,0.293-2.965,0.293c-2.107,0-3.975-0.348-5.604-1.042
	c-1.629-0.695-2.993-1.711-4.089-3.047c-1.097-1.336-1.935-2.976-2.509-4.92c-0.576-1.944-0.863-4.188-0.863-6.729
	c0-2.889,0.353-5.371,1.059-7.446c0.705-2.074,1.672-3.774,2.9-5.1c1.227-1.325,2.672-2.308,4.334-2.949
	c1.662-0.641,3.458-0.961,5.393-0.961c0.934,0,1.841,0.087,2.721,0.261c0.88,0.174,1.689,0.402,2.427,0.684
	c0.738,0.283,1.396,0.608,1.972,0.978c0.575,0.37,0.994,0.685,1.255,0.945s0.439,0.467,0.537,0.619s0.18,0.331,0.244,0.538
	c0.065,0.207,0.109,0.44,0.131,0.701c0.021,0.26,0.032,0.586,0.032,0.978c0,0.847-0.098,1.439-0.293,1.776s-0.435,0.505-0.717,0.505
	c-0.326,0-0.701-0.179-1.124-0.538c-0.424-0.358-0.962-0.754-1.613-1.189c-0.651-0.435-1.439-0.831-2.362-1.189
	c-0.924-0.358-2.016-0.538-3.275-0.538c-2.586,0-4.567,0.994-5.947,2.981c-1.38,1.988-2.069,4.872-2.069,8.651
	c0,1.89,0.179,3.547,0.538,4.97s0.884,2.612,1.581,3.568c0.695,0.956,1.548,1.667,2.558,2.134c1.01,0.467,2.167,0.701,3.47,0.701
	c1.238,0,2.324-0.195,3.258-0.586c0.933-0.391,1.744-0.82,2.428-1.287c0.684-0.467,1.259-0.891,1.727-1.271
	c0.467-0.38,0.831-0.57,1.092-0.57c0.152,0,0.282,0.044,0.391,0.13c0.108,0.087,0.201,0.233,0.277,0.44
	c0.076,0.207,0.13,0.467,0.163,0.782C304.276,97.356,304.293,97.731,304.293,98.166z"/>
<path d="M336.683,102.63c0,0.174-0.044,0.32-0.13,0.44c-0.087,0.119-0.229,0.223-0.424,0.31s-0.468,0.152-0.814,0.195
	c-0.348,0.043-0.782,0.065-1.304,0.065c-0.543,0-0.988-0.022-1.336-0.065s-0.619-0.108-0.814-0.195
	c-0.196-0.087-0.337-0.19-0.424-0.31c-0.087-0.12-0.131-0.266-0.131-0.44V85.457c0-1.672-0.13-3.019-0.391-4.041
	c-0.261-1.021-0.641-1.901-1.141-2.639s-1.146-1.304-1.938-1.694c-0.793-0.391-1.711-0.587-2.754-0.587
	c-1.347,0-2.693,0.478-4.04,1.434c-1.348,0.956-2.759,2.357-4.236,4.204v20.496c0,0.174-0.044,0.32-0.131,0.44
	c-0.087,0.119-0.228,0.223-0.423,0.31c-0.196,0.087-0.468,0.152-0.815,0.195c-0.347,0.043-0.793,0.065-1.336,0.065
	c-0.521,0-0.955-0.022-1.303-0.065s-0.625-0.108-0.831-0.195c-0.207-0.087-0.348-0.19-0.424-0.31
	c-0.076-0.12-0.114-0.266-0.114-0.44V73.303c0-0.174,0.033-0.32,0.098-0.44c0.065-0.119,0.196-0.228,0.392-0.326
	s0.445-0.163,0.749-0.195c0.305-0.033,0.706-0.049,1.206-0.049c0.478,0,0.874,0.016,1.189,0.049
	c0.314,0.032,0.559,0.098,0.732,0.195s0.299,0.207,0.375,0.326c0.076,0.12,0.114,0.266,0.114,0.44v3.878
	c1.651-1.846,3.297-3.198,4.937-4.057c1.641-0.858,3.297-1.287,4.97-1.287c1.955,0,3.601,0.332,4.937,0.994
	c1.336,0.663,2.417,1.548,3.242,2.656s1.417,2.406,1.775,3.894c0.358,1.488,0.538,3.275,0.538,5.36V102.63z"/>
<path d="M352.486,63.397c0,1.26-0.238,2.118-0.717,2.574c-0.478,0.456-1.357,0.684-2.64,0.684c-1.26,0-2.123-0.223-2.59-0.668
	c-0.468-0.445-0.701-1.287-0.701-2.525c0-1.259,0.239-2.118,0.717-2.574c0.479-0.456,1.358-0.684,2.64-0.684
	c1.26,0,2.124,0.223,2.591,0.668C352.253,61.317,352.486,62.159,352.486,63.397z M351.867,102.63c0,0.174-0.043,0.32-0.13,0.44
	c-0.087,0.119-0.229,0.223-0.424,0.31s-0.467,0.152-0.814,0.195s-0.793,0.065-1.336,0.065c-0.521,0-0.956-0.022-1.304-0.065
	s-0.625-0.108-0.831-0.195s-0.348-0.19-0.424-0.31c-0.075-0.12-0.113-0.266-0.113-0.44V73.303c0-0.151,0.038-0.293,0.113-0.423
	c0.076-0.13,0.218-0.239,0.424-0.326c0.206-0.086,0.483-0.151,0.831-0.195c0.348-0.043,0.782-0.065,1.304-0.065
	c0.543,0,0.988,0.021,1.336,0.065c0.348,0.044,0.619,0.109,0.814,0.195c0.195,0.087,0.337,0.196,0.424,0.326s0.13,0.272,0.13,0.423
	V102.63z"/>
<path d="M382.889,98.166c0,0.369-0.011,0.69-0.032,0.961c-0.022,0.271-0.06,0.5-0.114,0.684s-0.119,0.348-0.195,0.489
	s-0.25,0.348-0.521,0.619s-0.733,0.608-1.385,1.01c-0.652,0.402-1.385,0.76-2.2,1.075c-0.814,0.315-1.699,0.57-2.655,0.766
	c-0.956,0.195-1.944,0.293-2.965,0.293c-2.107,0-3.976-0.348-5.605-1.042c-1.629-0.695-2.992-1.711-4.089-3.047
	c-1.098-1.336-1.934-2.976-2.51-4.92c-0.575-1.944-0.863-4.188-0.863-6.729c0-2.889,0.354-5.371,1.06-7.446
	c0.706-2.074,1.672-3.774,2.899-5.1c1.228-1.325,2.672-2.308,4.334-2.949s3.46-0.961,5.394-0.961c0.934,0,1.841,0.087,2.721,0.261
	c0.88,0.174,1.688,0.402,2.428,0.684c0.738,0.283,1.396,0.608,1.971,0.978c0.576,0.37,0.994,0.685,1.255,0.945
	s0.439,0.467,0.538,0.619c0.098,0.152,0.179,0.331,0.244,0.538c0.064,0.207,0.108,0.44,0.13,0.701
	c0.021,0.26,0.033,0.586,0.033,0.978c0,0.847-0.099,1.439-0.294,1.776s-0.435,0.505-0.717,0.505c-0.325,0-0.7-0.179-1.124-0.538
	s-0.961-0.754-1.613-1.189c-0.651-0.435-1.438-0.831-2.362-1.189c-0.923-0.358-2.015-0.538-3.274-0.538
	c-2.585,0-4.567,0.994-5.947,2.981c-1.379,1.988-2.069,4.872-2.069,8.651c0,1.89,0.18,3.547,0.538,4.97s0.885,2.612,1.58,3.568
	c0.695,0.956,1.548,1.667,2.559,2.134c1.01,0.467,2.167,0.701,3.47,0.701c1.238,0,2.324-0.195,3.259-0.586s1.743-0.82,2.428-1.287
	c0.685-0.467,1.26-0.891,1.727-1.271c0.468-0.38,0.831-0.57,1.092-0.57c0.152,0,0.282,0.044,0.392,0.13
	c0.108,0.087,0.2,0.233,0.276,0.44c0.076,0.207,0.131,0.467,0.163,0.782S382.889,97.731,382.889,98.166z"/>
<path d="M411.563,102.662c0,0.261-0.087,0.457-0.261,0.587c-0.173,0.13-0.412,0.228-0.717,0.293
	c-0.304,0.065-0.749,0.098-1.336,0.098c-0.564,0-1.016-0.033-1.352-0.098c-0.337-0.065-0.581-0.163-0.733-0.293
	s-0.229-0.326-0.229-0.587v-2.933c-1.281,1.369-2.71,2.433-4.285,3.193c-1.574,0.761-3.242,1.141-5.001,1.141
	c-1.543,0-2.938-0.201-4.188-0.603c-1.249-0.402-2.313-0.983-3.193-1.744s-1.564-1.694-2.053-2.802
	c-0.489-1.108-0.733-2.367-0.733-3.78c0-1.651,0.337-3.084,1.01-4.301c0.674-1.217,1.641-2.227,2.9-3.031
	c1.26-0.803,2.803-1.406,4.627-1.808c1.825-0.402,3.878-0.603,6.159-0.603h4.04v-2.281c0-1.129-0.119-2.129-0.358-2.998
	c-0.239-0.869-0.624-1.591-1.156-2.167c-0.532-0.575-1.223-1.01-2.069-1.303c-0.848-0.293-1.891-0.44-3.129-0.44
	c-1.325,0-2.514,0.158-3.567,0.472c-1.054,0.315-1.978,0.663-2.77,1.043c-0.793,0.38-1.456,0.728-1.988,1.042
	c-0.532,0.315-0.929,0.473-1.189,0.473c-0.174,0-0.326-0.043-0.456-0.13c-0.13-0.086-0.244-0.217-0.342-0.391
	c-0.098-0.174-0.169-0.396-0.212-0.668c-0.044-0.271-0.065-0.57-0.065-0.896c0-0.542,0.038-0.972,0.114-1.287
	c0.076-0.314,0.261-0.614,0.554-0.896s0.799-0.614,1.516-0.994c0.717-0.379,1.542-0.728,2.477-1.042
	c0.934-0.314,1.955-0.575,3.063-0.782c1.108-0.206,2.227-0.31,3.356-0.31c2.107,0,3.899,0.24,5.377,0.717
	c1.477,0.478,2.672,1.179,3.584,2.102c0.912,0.924,1.575,2.069,1.987,3.438c0.413,1.369,0.619,2.965,0.619,4.79V102.662z
	 M406.22,89.27h-4.595c-1.477,0-2.759,0.125-3.845,0.375c-1.086,0.25-1.987,0.619-2.705,1.108c-0.717,0.489-1.243,1.075-1.58,1.76
	c-0.337,0.684-0.505,1.472-0.505,2.362c0,1.521,0.483,2.731,1.45,3.633c0.967,0.901,2.318,1.352,4.057,1.352
	c1.412,0,2.721-0.358,3.927-1.075c1.205-0.717,2.471-1.814,3.796-3.291V89.27z"/>
<path d="M469.012,101.131c0,0.435-0.073,0.804-0.219,1.108s-0.337,0.554-0.573,0.75c-0.236,0.195-0.499,0.336-0.792,0.423
	c-0.292,0.087-0.584,0.13-0.876,0.13h-1.854c-0.584,0-1.096-0.06-1.533-0.179c-0.438-0.119-0.854-0.336-1.247-0.651
	s-0.786-0.744-1.18-1.287c-0.394-0.543-0.811-1.238-1.251-2.085l-12.863-23.983c-0.673-1.238-1.351-2.537-2.034-3.894
	s-1.318-2.677-1.907-3.959h-0.064c0.043,1.564,0.075,3.161,0.098,4.79c0.021,1.629,0.032,3.248,0.032,4.855v25.449
	c0,0.152-0.046,0.299-0.138,0.44c-0.091,0.141-0.246,0.25-0.464,0.326c-0.219,0.076-0.505,0.141-0.859,0.196
	c-0.355,0.054-0.81,0.082-1.358,0.082c-0.551,0-1.003-0.027-1.358-0.082c-0.355-0.055-0.636-0.12-0.842-0.196
	c-0.208-0.076-0.356-0.185-0.447-0.326c-0.092-0.141-0.138-0.288-0.138-0.44V63.69c0-0.869,0.246-1.488,0.739-1.857
	s1.032-0.554,1.615-0.554h2.758c0.649,0,1.193,0.054,1.631,0.163s0.83,0.288,1.177,0.538c0.348,0.25,0.685,0.598,1.009,1.042
	c0.325,0.446,0.667,1.005,1.024,1.678l9.889,18.509c0.608,1.129,1.195,2.232,1.763,3.307c0.567,1.076,1.113,2.134,1.638,3.177
	c0.525,1.043,1.045,2.069,1.559,3.079c0.516,1.01,1.024,2.026,1.528,3.047h0.032c-0.043-1.716-0.07-3.503-0.081-5.36
	s-0.017-3.644-0.017-5.36V62.224c0-0.151,0.046-0.293,0.138-0.423s0.246-0.245,0.463-0.342c0.219-0.098,0.506-0.168,0.86-0.212
	c0.355-0.043,0.819-0.065,1.393-0.065c0.505,0,0.94,0.021,1.307,0.065c0.366,0.044,0.653,0.114,0.86,0.212
	c0.206,0.098,0.355,0.212,0.446,0.342c0.092,0.13,0.138,0.272,0.138,0.423V101.131z"/>
<path d="M493.875,66.525c0,1.065-0.201,2.064-0.604,2.998c-0.401,0.934-0.967,1.755-1.694,2.46
	c-0.728,0.706-1.586,1.254-2.574,1.646c-0.988,0.391-2.059,0.586-3.21,0.586c-1.15,0-2.199-0.179-3.144-0.538
	c-0.945-0.358-1.766-0.864-2.461-1.515c-0.695-0.652-1.238-1.434-1.629-2.346c-0.392-0.913-0.587-1.923-0.587-3.031
	s0.207-2.134,0.619-3.079c0.413-0.945,0.983-1.754,1.711-2.428c0.728-0.673,1.58-1.206,2.558-1.597s2.042-0.586,3.193-0.586
	c1.13,0,2.173,0.185,3.129,0.554c0.956,0.37,1.781,0.875,2.477,1.516c0.694,0.641,1.238,1.417,1.629,2.33
	C493.679,64.407,493.875,65.417,493.875,66.525z M489.769,66.655c0-0.586-0.098-1.135-0.293-1.646
	c-0.195-0.51-0.467-0.95-0.814-1.319s-0.761-0.657-1.238-0.864c-0.479-0.207-0.999-0.31-1.564-0.31c-0.543,0-1.048,0.103-1.515,0.31
	c-0.468,0.207-0.875,0.494-1.223,0.864s-0.619,0.804-0.814,1.303c-0.195,0.5-0.293,1.032-0.293,1.597
	c0,0.63,0.098,1.206,0.293,1.727s0.473,0.967,0.831,1.336c0.358,0.37,0.782,0.657,1.271,0.863c0.489,0.207,1.016,0.31,1.581,0.31
	c0.521,0,1.016-0.108,1.482-0.326c0.467-0.217,0.869-0.516,1.206-0.896c0.336-0.38,0.603-0.82,0.798-1.32
	C489.671,67.785,489.769,67.242,489.769,66.655z"/>
<path d="M527.34,101.033c0,0.391-0.027,0.738-0.081,1.042c-0.055,0.304-0.131,0.56-0.229,0.766
	c-0.098,0.206-0.229,0.358-0.391,0.456c-0.163,0.098-0.343,0.146-0.538,0.146h-23.299c-0.304,0-0.57-0.038-0.798-0.114
	c-0.229-0.076-0.424-0.201-0.587-0.375s-0.282-0.423-0.358-0.75c-0.076-0.326-0.114-0.728-0.114-1.206
	c0-0.435,0.018-0.814,0.051-1.141c0.034-0.326,0.106-0.614,0.218-0.863c0.112-0.25,0.252-0.5,0.42-0.75s0.387-0.516,0.655-0.798
	l8.428-8.668c1.947-1.999,3.509-3.791,4.685-5.376c1.175-1.585,2.081-3.03,2.72-4.334c0.638-1.303,1.057-2.487,1.259-3.552
	c0.202-1.064,0.303-2.063,0.303-2.998c0-0.934-0.158-1.819-0.471-2.656c-0.314-0.836-0.769-1.569-1.361-2.2
	c-0.595-0.63-1.34-1.129-2.237-1.499c-0.896-0.369-1.928-0.554-3.093-0.554c-1.367,0-2.595,0.185-3.682,0.554
	c-1.087,0.37-2.04,0.771-2.857,1.206c-0.818,0.435-1.503,0.836-2.052,1.206s-0.958,0.554-1.228,0.554
	c-0.156,0-0.297-0.043-0.42-0.13c-0.124-0.086-0.224-0.228-0.303-0.423c-0.078-0.196-0.14-0.456-0.185-0.782
	c-0.045-0.326-0.067-0.717-0.067-1.173c0-0.326,0.011-0.608,0.033-0.847c0.021-0.239,0.06-0.445,0.113-0.619
	c0.055-0.174,0.125-0.337,0.212-0.489s0.261-0.342,0.521-0.57s0.712-0.538,1.353-0.929s1.444-0.777,2.411-1.157
	s2.031-0.701,3.193-0.961s2.384-0.391,3.666-0.391c2.042,0,3.829,0.289,5.36,0.864c1.531,0.576,2.802,1.363,3.813,2.362
	c1.01,0.999,1.765,2.162,2.265,3.487s0.749,2.737,0.749,4.236c0,1.347-0.119,2.688-0.358,4.024
	c-0.238,1.336-0.744,2.781-1.515,4.334c-0.771,1.553-1.885,3.28-3.341,5.181c-1.455,1.901-3.389,4.09-5.8,6.566l-6.68,6.973h18.346
	c0.174,0,0.342,0.049,0.505,0.146s0.304,0.245,0.424,0.44c0.119,0.195,0.206,0.44,0.261,0.733
	C527.313,100.3,527.34,100.642,527.34,101.033z"/>
<path d="M261.104,137.128c0,0.204-0.011,0.383-0.034,0.537c-0.022,0.153-0.063,0.281-0.119,0.383
	c-0.057,0.102-0.122,0.176-0.196,0.221s-0.156,0.068-0.247,0.068H249.93c-0.261,0-0.508-0.088-0.741-0.264
	c-0.233-0.176-0.349-0.485-0.349-0.928v-19.658c0-0.443,0.116-0.752,0.349-0.928s0.48-0.264,0.741-0.264h10.459
	c0.091,0,0.173,0.023,0.247,0.068c0.074,0.045,0.134,0.119,0.179,0.221c0.045,0.103,0.082,0.23,0.111,0.383
	c0.028,0.153,0.042,0.344,0.042,0.571c0,0.205-0.014,0.383-0.042,0.537c-0.029,0.153-0.065,0.278-0.111,0.375
	c-0.045,0.097-0.105,0.167-0.179,0.213c-0.074,0.045-0.156,0.068-0.247,0.068h-8.62v6.916h7.393c0.091,0,0.173,0.025,0.247,0.077
	c0.074,0.051,0.136,0.122,0.187,0.213c0.051,0.091,0.088,0.216,0.111,0.375c0.023,0.159,0.034,0.347,0.034,0.562
	c0,0.205-0.011,0.381-0.034,0.528c-0.022,0.147-0.06,0.267-0.111,0.358c-0.051,0.091-0.113,0.156-0.187,0.196
	c-0.074,0.04-0.156,0.06-0.247,0.06h-7.393v7.887h8.739c0.091,0,0.173,0.023,0.247,0.068c0.074,0.046,0.139,0.117,0.196,0.213
	c0.057,0.096,0.097,0.221,0.119,0.375C261.093,136.71,261.104,136.901,261.104,137.128z"/>
<path d="M275.175,133.738c0,0.784-0.145,1.482-0.435,2.095c-0.29,0.613-0.701,1.13-1.235,1.55c-0.534,0.42-1.17,0.738-1.908,0.954
	c-0.738,0.216-1.55,0.323-2.436,0.323c-0.545,0-1.064-0.042-1.559-0.127c-0.494-0.085-0.937-0.193-1.329-0.324
	c-0.392-0.13-0.724-0.267-0.997-0.409c-0.272-0.142-0.471-0.27-0.596-0.383c-0.125-0.114-0.216-0.272-0.272-0.477
	c-0.057-0.205-0.085-0.482-0.085-0.834c0-0.216,0.012-0.397,0.034-0.545c0.023-0.147,0.051-0.267,0.085-0.357
	c0.034-0.091,0.082-0.156,0.145-0.196c0.063-0.04,0.133-0.06,0.213-0.06c0.125,0,0.31,0.077,0.554,0.23s0.545,0.321,0.903,0.502
	c0.358,0.182,0.781,0.35,1.269,0.503s1.05,0.23,1.687,0.23c0.477,0,0.908-0.051,1.294-0.153c0.386-0.103,0.721-0.253,1.005-0.452
	c0.284-0.199,0.502-0.451,0.656-0.758s0.23-0.67,0.23-1.09c0-0.432-0.111-0.795-0.332-1.09c-0.222-0.295-0.514-0.556-0.877-0.784
	c-0.363-0.227-0.772-0.428-1.226-0.604c-0.455-0.176-0.923-0.36-1.406-0.554c-0.482-0.193-0.954-0.412-1.414-0.656
	s-0.872-0.542-1.235-0.894s-0.656-0.772-0.877-1.261c-0.221-0.488-0.332-1.073-0.332-1.754c0-0.602,0.116-1.178,0.349-1.729
	s0.582-1.033,1.047-1.448c0.466-0.415,1.048-0.747,1.746-0.997c0.699-0.25,1.513-0.375,2.444-0.375c0.409,0,0.818,0.034,1.227,0.103
	c0.409,0.068,0.778,0.153,1.107,0.255c0.329,0.102,0.61,0.213,0.843,0.332c0.232,0.119,0.409,0.224,0.528,0.315
	c0.119,0.091,0.199,0.17,0.239,0.238c0.04,0.068,0.068,0.145,0.085,0.23s0.034,0.19,0.051,0.315c0.017,0.125,0.025,0.278,0.025,0.46
	c0,0.193-0.009,0.361-0.025,0.502c-0.017,0.142-0.045,0.259-0.085,0.35c-0.04,0.091-0.088,0.156-0.145,0.196
	c-0.057,0.04-0.12,0.06-0.188,0.06c-0.102,0-0.25-0.063-0.443-0.188c-0.193-0.125-0.443-0.258-0.75-0.4
	c-0.307-0.142-0.667-0.275-1.082-0.4c-0.415-0.125-0.889-0.187-1.422-0.187c-0.477,0-0.897,0.054-1.261,0.162
	s-0.662,0.261-0.894,0.46c-0.233,0.199-0.409,0.435-0.528,0.707s-0.179,0.568-0.179,0.886c0,0.443,0.113,0.815,0.34,1.116
	c0.228,0.301,0.522,0.565,0.886,0.792c0.363,0.227,0.778,0.432,1.243,0.613c0.466,0.182,0.94,0.369,1.422,0.562
	c0.483,0.193,0.959,0.409,1.431,0.647c0.471,0.238,0.888,0.528,1.252,0.869c0.363,0.341,0.656,0.75,0.877,1.227
	C275.064,132.512,275.175,133.08,275.175,133.738z"/>
<path d="M290.216,135.578c0,0.193-0.006,0.361-0.017,0.502c-0.011,0.142-0.031,0.261-0.06,0.358s-0.063,0.182-0.102,0.255
	c-0.04,0.074-0.131,0.182-0.272,0.324c-0.142,0.142-0.383,0.318-0.724,0.528c-0.341,0.21-0.724,0.397-1.15,0.563
	c-0.426,0.165-0.889,0.298-1.388,0.4c-0.5,0.103-1.017,0.153-1.55,0.153c-1.102,0-2.078-0.182-2.93-0.545s-1.564-0.894-2.138-1.593
	c-0.574-0.698-1.011-1.556-1.312-2.572c-0.301-1.016-0.451-2.188-0.451-3.517c0-1.511,0.185-2.808,0.554-3.893
	s0.875-1.973,1.516-2.666c0.642-0.693,1.396-1.207,2.265-1.542c0.869-0.335,1.809-0.502,2.819-0.502
	c0.488,0,0.962,0.045,1.422,0.136s0.883,0.21,1.269,0.358c0.386,0.147,0.729,0.318,1.031,0.511c0.301,0.193,0.52,0.358,0.656,0.494
	s0.23,0.244,0.281,0.324c0.051,0.08,0.094,0.173,0.128,0.281s0.057,0.23,0.068,0.366c0.011,0.136,0.017,0.307,0.017,0.511
	c0,0.443-0.051,0.752-0.153,0.929c-0.102,0.176-0.227,0.264-0.375,0.264c-0.17,0-0.366-0.094-0.588-0.281
	c-0.221-0.188-0.502-0.395-0.843-0.622c-0.34-0.227-0.752-0.434-1.235-0.622c-0.482-0.188-1.053-0.281-1.712-0.281
	c-1.351,0-2.388,0.52-3.108,1.559c-0.721,1.039-1.082,2.547-1.082,4.523c0,0.988,0.094,1.854,0.281,2.598
	c0.188,0.744,0.463,1.365,0.826,1.865c0.363,0.5,0.809,0.872,1.337,1.116c0.528,0.244,1.133,0.366,1.814,0.366
	c0.647,0,1.215-0.103,1.703-0.307c0.488-0.205,0.912-0.429,1.269-0.673c0.358-0.244,0.659-0.466,0.903-0.665
	s0.435-0.298,0.571-0.298c0.08,0,0.147,0.022,0.205,0.068c0.057,0.045,0.105,0.122,0.145,0.23c0.04,0.108,0.068,0.244,0.085,0.409
	C290.207,135.155,290.216,135.351,290.216,135.578z"/>
<path d="M307.08,137.912c0,0.091-0.021,0.167-0.061,0.229c-0.039,0.063-0.11,0.117-0.213,0.162c-0.102,0.045-0.235,0.08-0.399,0.102
	c-0.165,0.023-0.367,0.034-0.605,0.034c-0.261,0-0.474-0.011-0.639-0.034c-0.164-0.022-0.295-0.057-0.392-0.102
	s-0.162-0.1-0.196-0.162c-0.033-0.062-0.051-0.139-0.051-0.229v-2.027c-0.874,0.965-1.737,1.669-2.589,2.112
	c-0.853,0.443-1.715,0.664-2.589,0.664c-1.022,0-1.883-0.17-2.581-0.511c-0.699-0.341-1.264-0.804-1.695-1.388
	c-0.431-0.585-0.741-1.266-0.928-2.044c-0.188-0.778-0.281-1.723-0.281-2.836v-9.301c0-0.091,0.02-0.167,0.06-0.23
	c0.04-0.063,0.116-0.119,0.23-0.17c0.113-0.051,0.261-0.085,0.443-0.102s0.409-0.025,0.681-0.025s0.5,0.008,0.681,0.025
	c0.182,0.017,0.327,0.051,0.435,0.102c0.108,0.051,0.185,0.108,0.23,0.17s0.068,0.139,0.068,0.23v8.926
	c0,0.897,0.065,1.616,0.196,2.155c0.13,0.54,0.329,1,0.597,1.38c0.266,0.38,0.604,0.676,1.013,0.886
	c0.409,0.21,0.886,0.315,1.431,0.315c0.705,0,1.406-0.25,2.104-0.75c0.699-0.5,1.44-1.232,2.224-2.198v-10.714
	c0-0.091,0.02-0.167,0.06-0.23s0.116-0.119,0.23-0.17c0.113-0.051,0.258-0.085,0.434-0.102c0.177-0.017,0.406-0.025,0.69-0.025
	c0.272,0,0.499,0.008,0.681,0.025c0.183,0.017,0.324,0.051,0.427,0.102c0.102,0.051,0.179,0.108,0.229,0.17s0.077,0.139,0.077,0.23
	V137.912z"/>
<path d="M325.357,129.582c0,0.443-0.112,0.758-0.334,0.945c-0.223,0.188-0.477,0.281-0.761,0.281h-10.097
	c0,0.852,0.085,1.618,0.256,2.3c0.172,0.681,0.456,1.266,0.856,1.754c0.399,0.488,0.918,0.863,1.558,1.124s1.421,0.392,2.346,0.392
	c0.729,0,1.38-0.06,1.95-0.179c0.57-0.12,1.064-0.253,1.481-0.4c0.416-0.148,0.759-0.281,1.026-0.4
	c0.269-0.119,0.472-0.179,0.608-0.179c0.079,0,0.15,0.02,0.214,0.06c0.063,0.04,0.111,0.099,0.145,0.179
	c0.034,0.08,0.061,0.19,0.078,0.332c0.017,0.142,0.025,0.315,0.025,0.52c0,0.148-0.006,0.275-0.017,0.383
	c-0.012,0.108-0.026,0.205-0.043,0.29c-0.017,0.085-0.046,0.162-0.085,0.23c-0.04,0.068-0.091,0.133-0.153,0.196
	s-0.247,0.165-0.554,0.307c-0.307,0.142-0.704,0.281-1.192,0.417s-1.054,0.258-1.695,0.366s-1.325,0.162-2.053,0.162
	c-1.26,0-2.364-0.176-3.313-0.528s-1.746-0.875-2.394-1.567c-0.647-0.693-1.136-1.562-1.465-2.606s-0.494-2.26-0.494-3.646
	c0-1.317,0.17-2.501,0.511-3.551c0.341-1.051,0.832-1.942,1.474-2.674c0.642-0.733,1.417-1.295,2.325-1.687s1.925-0.588,3.049-0.588
	c1.204,0,2.229,0.193,3.075,0.579c0.846,0.386,1.541,0.906,2.087,1.559c0.545,0.653,0.945,1.42,1.2,2.3
	c0.256,0.88,0.384,1.82,0.384,2.819V129.582z M322.529,128.747c0.034-1.477-0.294-2.635-0.985-3.475s-1.717-1.26-3.076-1.26
	c-0.697,0-1.309,0.13-1.834,0.392s-0.965,0.607-1.32,1.039c-0.354,0.432-0.628,0.934-0.822,1.507
	c-0.193,0.574-0.303,1.173-0.325,1.797H322.529z"/>
<path d="M332.443,137.912c0,0.091-0.022,0.167-0.068,0.229c-0.045,0.063-0.119,0.117-0.221,0.162
	c-0.103,0.045-0.244,0.08-0.427,0.102c-0.182,0.023-0.414,0.034-0.698,0.034c-0.272,0-0.499-0.011-0.681-0.034
	c-0.182-0.022-0.327-0.057-0.435-0.102c-0.108-0.045-0.182-0.1-0.222-0.162c-0.04-0.062-0.06-0.139-0.06-0.229v-22.758
	c0-0.091,0.02-0.17,0.06-0.238c0.04-0.068,0.113-0.125,0.222-0.17c0.107-0.045,0.253-0.08,0.435-0.103
	c0.182-0.022,0.408-0.034,0.681-0.034c0.284,0,0.517,0.011,0.698,0.034c0.183,0.023,0.324,0.057,0.427,0.103
	c0.102,0.045,0.176,0.102,0.221,0.17c0.046,0.068,0.068,0.147,0.068,0.238V137.912z"/>
<path d="M349.188,137.928c0,0.137-0.046,0.239-0.137,0.307c-0.091,0.068-0.216,0.12-0.375,0.153
	c-0.159,0.034-0.392,0.051-0.698,0.051c-0.295,0-0.531-0.017-0.707-0.051c-0.176-0.034-0.304-0.085-0.383-0.153
	c-0.08-0.068-0.119-0.17-0.119-0.307v-1.533c-0.67,0.715-1.417,1.272-2.24,1.669s-1.695,0.596-2.615,0.596
	c-0.806,0-1.535-0.105-2.188-0.315s-1.209-0.514-1.669-0.911s-0.818-0.886-1.073-1.465c-0.256-0.579-0.384-1.238-0.384-1.976
	c0-0.863,0.176-1.613,0.528-2.249c0.352-0.636,0.857-1.164,1.516-1.584c0.659-0.42,1.465-0.735,2.419-0.945s2.027-0.315,3.22-0.315
	h2.112v-1.192c0-0.591-0.063-1.113-0.188-1.567c-0.125-0.454-0.326-0.832-0.604-1.133c-0.278-0.301-0.639-0.528-1.082-0.681
	c-0.442-0.153-0.988-0.23-1.635-0.23c-0.693,0-1.314,0.083-1.865,0.247s-1.034,0.346-1.448,0.545s-0.761,0.38-1.039,0.545
	c-0.278,0.165-0.485,0.247-0.622,0.247c-0.091,0-0.17-0.022-0.238-0.068s-0.128-0.114-0.179-0.205s-0.088-0.207-0.11-0.349
	c-0.023-0.142-0.034-0.298-0.034-0.468c0-0.284,0.02-0.508,0.06-0.673c0.039-0.165,0.136-0.321,0.289-0.469
	c0.153-0.147,0.418-0.321,0.792-0.52c0.375-0.199,0.807-0.38,1.295-0.545s1.022-0.301,1.602-0.409s1.164-0.162,1.754-0.162
	c1.102,0,2.039,0.125,2.811,0.375c0.772,0.25,1.397,0.616,1.874,1.099c0.478,0.482,0.823,1.082,1.039,1.797
	c0.216,0.716,0.324,1.55,0.324,2.504V137.928z M346.395,130.927h-2.402c-0.771,0-1.441,0.065-2.01,0.196
	c-0.567,0.131-1.039,0.324-1.414,0.58c-0.374,0.255-0.649,0.562-0.826,0.919c-0.176,0.358-0.264,0.77-0.264,1.235
	c0,0.795,0.253,1.428,0.758,1.899c0.506,0.472,1.213,0.707,2.121,0.707c0.738,0,1.422-0.188,2.053-0.562
	c0.63-0.375,1.292-0.948,1.984-1.72V130.927z"/>
<path d="M375.83,134.266c0,0.784-0.145,1.482-0.435,2.095c-0.289,0.613-0.701,1.13-1.234,1.55c-0.534,0.42-1.17,0.738-1.908,0.954
	s-1.55,0.323-2.436,0.323c-0.545,0-1.064-0.042-1.559-0.127c-0.494-0.085-0.938-0.193-1.329-0.324
	c-0.392-0.13-0.724-0.267-0.996-0.409c-0.272-0.142-0.472-0.27-0.597-0.383c-0.125-0.114-0.216-0.272-0.272-0.477
	s-0.085-0.482-0.085-0.834c0-0.216,0.012-0.397,0.034-0.545c0.022-0.147,0.051-0.267,0.085-0.357s0.082-0.156,0.145-0.196
	c0.063-0.04,0.134-0.06,0.213-0.06c0.125,0,0.31,0.077,0.554,0.23s0.545,0.321,0.903,0.502c0.357,0.182,0.78,0.35,1.269,0.503
	s1.051,0.23,1.687,0.23c0.478,0,0.908-0.051,1.295-0.153c0.386-0.103,0.721-0.253,1.005-0.452s0.502-0.451,0.655-0.758
	s0.23-0.67,0.23-1.09c0-0.432-0.11-0.795-0.332-1.09c-0.222-0.295-0.514-0.556-0.878-0.784c-0.363-0.227-0.771-0.428-1.226-0.604
	c-0.455-0.176-0.923-0.36-1.405-0.554c-0.483-0.193-0.954-0.412-1.414-0.656s-0.872-0.542-1.235-0.894s-0.655-0.772-0.877-1.261
	s-0.332-1.073-0.332-1.754c0-0.602,0.116-1.178,0.349-1.729c0.233-0.551,0.582-1.033,1.048-1.448s1.048-0.747,1.746-0.997
	c0.698-0.25,1.513-0.375,2.444-0.375c0.409,0,0.817,0.034,1.227,0.103c0.409,0.068,0.777,0.153,1.107,0.255
	c0.329,0.102,0.61,0.213,0.843,0.332c0.233,0.119,0.409,0.224,0.528,0.315c0.119,0.091,0.198,0.17,0.238,0.238
	c0.04,0.068,0.068,0.145,0.085,0.23c0.018,0.085,0.034,0.19,0.052,0.315c0.017,0.125,0.025,0.278,0.025,0.46
	c0,0.193-0.009,0.361-0.025,0.502c-0.018,0.142-0.046,0.259-0.086,0.35c-0.039,0.091-0.088,0.156-0.145,0.196
	c-0.057,0.04-0.119,0.06-0.188,0.06c-0.102,0-0.25-0.063-0.442-0.188c-0.193-0.125-0.443-0.258-0.75-0.4
	c-0.307-0.142-0.667-0.275-1.081-0.4c-0.415-0.125-0.889-0.187-1.423-0.187c-0.477,0-0.897,0.054-1.261,0.162
	s-0.661,0.261-0.894,0.46c-0.233,0.199-0.409,0.435-0.528,0.707s-0.179,0.568-0.179,0.886c0,0.443,0.113,0.815,0.341,1.116
	c0.227,0.301,0.521,0.565,0.886,0.792c0.363,0.227,0.777,0.432,1.243,0.613s0.939,0.369,1.422,0.562
	c0.483,0.193,0.96,0.409,1.432,0.647c0.471,0.238,0.889,0.528,1.252,0.869s0.655,0.75,0.877,1.227S375.83,133.608,375.83,134.266z"
	/>
<path d="M392.933,130.11c0,0.443-0.111,0.758-0.334,0.945c-0.223,0.188-0.477,0.281-0.761,0.281h-10.097
	c0,0.852,0.085,1.618,0.256,2.3c0.172,0.681,0.457,1.266,0.856,1.754s0.918,0.863,1.559,1.124c0.639,0.261,1.42,0.392,2.345,0.392
	c0.729,0,1.38-0.06,1.95-0.179c0.57-0.12,1.064-0.253,1.481-0.4c0.416-0.148,0.759-0.281,1.026-0.4
	c0.269-0.119,0.472-0.179,0.608-0.179c0.08,0,0.15,0.02,0.214,0.06c0.063,0.04,0.111,0.099,0.145,0.179
	c0.034,0.08,0.061,0.19,0.078,0.332c0.017,0.142,0.025,0.315,0.025,0.52c0,0.148-0.006,0.275-0.017,0.383
	c-0.012,0.108-0.026,0.205-0.043,0.29c-0.017,0.085-0.046,0.162-0.085,0.23c-0.04,0.068-0.091,0.133-0.153,0.196
	s-0.247,0.165-0.554,0.307c-0.307,0.142-0.704,0.281-1.192,0.417s-1.054,0.258-1.695,0.366s-1.325,0.162-2.053,0.162
	c-1.26,0-2.364-0.176-3.313-0.528s-1.746-0.875-2.394-1.567c-0.647-0.693-1.136-1.562-1.465-2.606s-0.494-2.26-0.494-3.646
	c0-1.317,0.171-2.501,0.511-3.551c0.341-1.051,0.832-1.942,1.474-2.674c0.642-0.733,1.417-1.295,2.325-1.687
	s1.925-0.588,3.049-0.588c1.204,0,2.229,0.193,3.075,0.579c0.846,0.386,1.542,0.906,2.087,1.559c0.545,0.653,0.945,1.42,1.2,2.3
	c0.256,0.88,0.384,1.82,0.384,2.819V130.11z M390.104,129.275c0.034-1.477-0.294-2.635-0.984-3.475
	c-0.692-0.84-1.718-1.26-3.077-1.26c-0.697,0-1.309,0.13-1.834,0.392s-0.965,0.607-1.32,1.039c-0.354,0.432-0.628,0.934-0.822,1.507
	c-0.193,0.574-0.303,1.173-0.325,1.797H390.104z"/>
<path d="M408.229,136.106c0,0.193-0.006,0.361-0.018,0.502c-0.011,0.142-0.031,0.261-0.06,0.358s-0.063,0.182-0.102,0.255
	c-0.04,0.074-0.131,0.182-0.273,0.324c-0.142,0.142-0.383,0.318-0.724,0.528c-0.341,0.21-0.724,0.397-1.149,0.563
	c-0.426,0.165-0.889,0.298-1.389,0.4c-0.5,0.103-1.017,0.153-1.55,0.153c-1.102,0-2.078-0.182-2.93-0.545
	c-0.853-0.363-1.564-0.894-2.138-1.593c-0.574-0.698-1.011-1.556-1.313-2.572c-0.301-1.016-0.451-2.188-0.451-3.517
	c0-1.511,0.185-2.808,0.554-3.893s0.874-1.973,1.517-2.666c0.642-0.693,1.396-1.207,2.265-1.542
	c0.869-0.335,1.809-0.502,2.819-0.502c0.488,0,0.963,0.045,1.423,0.136s0.883,0.21,1.269,0.358c0.387,0.147,0.729,0.318,1.031,0.511
	c0.301,0.193,0.52,0.358,0.655,0.494c0.137,0.136,0.23,0.244,0.281,0.324s0.094,0.173,0.128,0.281s0.057,0.23,0.067,0.366
	c0.012,0.136,0.018,0.307,0.018,0.511c0,0.443-0.051,0.752-0.153,0.929c-0.103,0.176-0.228,0.264-0.375,0.264
	c-0.17,0-0.366-0.094-0.588-0.281c-0.221-0.188-0.502-0.395-0.843-0.622s-0.752-0.434-1.235-0.622
	c-0.482-0.188-1.053-0.281-1.712-0.281c-1.351,0-2.388,0.52-3.108,1.559s-1.082,2.547-1.082,4.523c0,0.988,0.094,1.854,0.281,2.598
	c0.188,0.744,0.463,1.365,0.826,1.865c0.363,0.5,0.81,0.872,1.337,1.116c0.528,0.244,1.133,0.366,1.814,0.366
	c0.647,0,1.215-0.103,1.703-0.307c0.488-0.205,0.912-0.429,1.27-0.673s0.658-0.466,0.902-0.665s0.435-0.298,0.571-0.298
	c0.079,0,0.147,0.022,0.204,0.068s0.105,0.122,0.145,0.23c0.04,0.108,0.068,0.244,0.086,0.409
	C408.221,135.683,408.229,135.879,408.229,136.106z"/>
<path d="M425.093,138.44c0,0.091-0.02,0.167-0.06,0.229c-0.04,0.063-0.11,0.117-0.213,0.162c-0.102,0.045-0.235,0.08-0.4,0.102
	c-0.164,0.023-0.366,0.034-0.604,0.034c-0.261,0-0.474-0.011-0.639-0.034c-0.165-0.022-0.295-0.057-0.392-0.102
	s-0.162-0.1-0.196-0.162c-0.034-0.062-0.051-0.139-0.051-0.229v-2.027c-0.875,0.965-1.737,1.669-2.59,2.112
	c-0.852,0.443-1.714,0.664-2.589,0.664c-1.021,0-1.882-0.17-2.58-0.511c-0.699-0.341-1.264-0.804-1.695-1.388
	c-0.432-0.585-0.741-1.266-0.929-2.044c-0.188-0.778-0.281-1.723-0.281-2.836v-9.301c0-0.091,0.021-0.167,0.061-0.23
	c0.039-0.063,0.116-0.119,0.229-0.17c0.113-0.051,0.261-0.085,0.443-0.102c0.182-0.017,0.408-0.025,0.681-0.025
	s0.5,0.008,0.682,0.025s0.326,0.051,0.435,0.102c0.107,0.051,0.185,0.108,0.229,0.17c0.046,0.063,0.068,0.139,0.068,0.23v8.926
	c0,0.897,0.065,1.616,0.196,2.155c0.13,0.54,0.329,1,0.596,1.38s0.604,0.676,1.014,0.886c0.409,0.21,0.886,0.315,1.431,0.315
	c0.704,0,1.405-0.25,2.104-0.75c0.699-0.5,1.439-1.232,2.224-2.198v-10.714c0-0.091,0.02-0.167,0.06-0.23
	c0.039-0.063,0.116-0.119,0.229-0.17c0.113-0.051,0.259-0.085,0.435-0.102s0.406-0.025,0.689-0.025c0.273,0,0.5,0.008,0.682,0.025
	s0.324,0.051,0.426,0.102c0.103,0.051,0.179,0.108,0.23,0.17c0.051,0.063,0.076,0.139,0.076,0.23V138.44z"/>
<path d="M443.49,138.44c0,0.091-0.023,0.167-0.068,0.229c-0.046,0.063-0.119,0.117-0.222,0.162s-0.244,0.08-0.426,0.102
	c-0.182,0.023-0.409,0.034-0.682,0.034c-0.283,0-0.517-0.011-0.698-0.034c-0.182-0.022-0.323-0.057-0.426-0.102
	s-0.176-0.1-0.222-0.162c-0.045-0.062-0.067-0.139-0.067-0.229v-8.977c0-0.875-0.068-1.579-0.205-2.112
	c-0.136-0.534-0.335-0.994-0.596-1.38c-0.262-0.386-0.6-0.681-1.014-0.886c-0.415-0.205-0.895-0.307-1.439-0.307
	c-0.704,0-1.408,0.25-2.112,0.75s-1.442,1.232-2.215,2.197v10.715c0,0.091-0.022,0.167-0.067,0.229
	c-0.046,0.063-0.119,0.117-0.222,0.162s-0.244,0.08-0.426,0.102c-0.182,0.023-0.415,0.034-0.698,0.034
	c-0.272,0-0.5-0.011-0.682-0.034c-0.182-0.022-0.326-0.057-0.435-0.102c-0.107-0.045-0.182-0.1-0.222-0.162
	c-0.039-0.062-0.06-0.139-0.06-0.229v-15.331c0-0.091,0.018-0.167,0.052-0.23s0.102-0.119,0.204-0.17
	c0.103-0.051,0.232-0.085,0.392-0.102s0.369-0.025,0.631-0.025c0.249,0,0.457,0.008,0.621,0.025
	c0.165,0.017,0.293,0.051,0.384,0.102c0.091,0.051,0.156,0.108,0.195,0.17c0.04,0.063,0.06,0.139,0.06,0.23v2.027
	c0.863-0.965,1.724-1.672,2.581-2.121c0.857-0.448,1.724-0.673,2.598-0.673c1.022,0,1.882,0.173,2.581,0.52
	c0.698,0.347,1.263,0.809,1.694,1.389c0.432,0.579,0.741,1.257,0.929,2.035c0.188,0.778,0.281,1.712,0.281,2.802V138.44z"/>
<path d="M461.75,138.44c0,0.091-0.02,0.17-0.06,0.238c-0.039,0.068-0.107,0.122-0.204,0.162c-0.097,0.04-0.225,0.071-0.383,0.094
	c-0.159,0.023-0.353,0.034-0.579,0.034c-0.239,0-0.438-0.011-0.597-0.034c-0.159-0.022-0.289-0.054-0.392-0.094
	c-0.103-0.04-0.176-0.094-0.222-0.162c-0.045-0.068-0.068-0.147-0.068-0.238v-2.027c-0.806,0.875-1.644,1.556-2.512,2.044
	c-0.869,0.488-1.82,0.732-2.854,0.732c-1.124,0-2.084-0.218-2.879-0.656c-0.795-0.437-1.439-1.027-1.934-1.771
	c-0.494-0.744-0.854-1.618-1.081-2.623c-0.228-1.005-0.341-2.064-0.341-3.177c0-1.317,0.142-2.507,0.426-3.569
	c0.284-1.062,0.704-1.967,1.261-2.717c0.556-0.75,1.246-1.326,2.069-1.729c0.823-0.403,1.774-0.605,2.854-0.605
	c0.896,0,1.717,0.196,2.461,0.588s1.479,0.968,2.206,1.729v-8.909c0-0.079,0.02-0.156,0.06-0.23c0.04-0.074,0.116-0.13,0.23-0.17
	c0.113-0.04,0.258-0.074,0.434-0.103c0.177-0.028,0.4-0.042,0.673-0.042c0.284,0,0.517,0.014,0.698,0.042
	c0.183,0.028,0.324,0.063,0.427,0.103c0.102,0.04,0.179,0.096,0.229,0.17c0.051,0.074,0.076,0.151,0.076,0.23V138.44z
	 M458.923,127.657c-0.761-0.943-1.496-1.661-2.206-2.155c-0.71-0.494-1.45-0.741-2.223-0.741c-0.716,0-1.323,0.17-1.823,0.511
	c-0.499,0.34-0.905,0.789-1.218,1.346c-0.313,0.556-0.539,1.187-0.682,1.891c-0.142,0.704-0.213,1.419-0.213,2.146
	c0,0.772,0.061,1.527,0.18,2.265c0.119,0.738,0.326,1.394,0.621,1.968c0.296,0.573,0.688,1.033,1.176,1.38
	c0.488,0.346,1.102,0.52,1.84,0.52c0.374,0,0.735-0.051,1.081-0.153c0.347-0.103,0.701-0.273,1.065-0.511
	c0.363-0.238,0.743-0.548,1.141-0.928s0.817-0.849,1.261-1.405V127.657z"/>
<path d="M478.495,138.457c0,0.137-0.046,0.239-0.137,0.307c-0.091,0.068-0.216,0.12-0.374,0.153
	c-0.159,0.034-0.393,0.051-0.699,0.051c-0.295,0-0.53-0.017-0.706-0.051c-0.177-0.034-0.304-0.085-0.384-0.153
	c-0.079-0.068-0.119-0.17-0.119-0.307v-1.533c-0.67,0.715-1.417,1.272-2.24,1.669s-1.694,0.596-2.614,0.596
	c-0.807,0-1.536-0.105-2.189-0.315c-0.652-0.21-1.209-0.514-1.669-0.911s-0.817-0.886-1.073-1.465
	c-0.256-0.579-0.383-1.238-0.383-1.976c0-0.863,0.176-1.613,0.527-2.249c0.353-0.636,0.857-1.164,1.517-1.584
	c0.658-0.42,1.465-0.735,2.419-0.945c0.953-0.21,2.026-0.315,3.219-0.315h2.112v-1.192c0-0.591-0.063-1.113-0.188-1.567
	c-0.124-0.454-0.326-0.832-0.604-1.133c-0.278-0.301-0.639-0.528-1.081-0.681c-0.443-0.153-0.988-0.23-1.636-0.23
	c-0.692,0-1.314,0.083-1.865,0.247s-1.033,0.346-1.448,0.545c-0.414,0.199-0.761,0.38-1.039,0.545
	c-0.278,0.165-0.485,0.247-0.621,0.247c-0.091,0-0.171-0.022-0.238-0.068c-0.068-0.045-0.128-0.114-0.18-0.205
	c-0.051-0.091-0.088-0.207-0.11-0.349s-0.034-0.298-0.034-0.468c0-0.284,0.02-0.508,0.06-0.673s0.137-0.321,0.29-0.469
	c0.153-0.147,0.417-0.321,0.792-0.52c0.374-0.199,0.806-0.38,1.294-0.545s1.022-0.301,1.602-0.409s1.164-0.162,1.755-0.162
	c1.102,0,2.038,0.125,2.811,0.375c0.772,0.25,1.396,0.616,1.874,1.099c0.477,0.482,0.823,1.082,1.039,1.797
	c0.215,0.716,0.323,1.55,0.323,2.504V138.457z M475.701,131.456H473.3c-0.772,0-1.442,0.065-2.01,0.196
	c-0.568,0.131-1.039,0.324-1.414,0.58c-0.375,0.255-0.65,0.562-0.826,0.919c-0.176,0.358-0.265,0.77-0.265,1.235
	c0,0.795,0.253,1.428,0.759,1.899c0.505,0.472,1.212,0.707,2.12,0.707c0.738,0,1.423-0.188,2.053-0.562
	c0.631-0.375,1.292-0.948,1.984-1.72V131.456z"/>
<path d="M492.616,124.114c0,0.25-0.006,0.46-0.017,0.63c-0.012,0.17-0.034,0.304-0.068,0.4s-0.077,0.17-0.128,0.222
	c-0.051,0.051-0.122,0.077-0.213,0.077s-0.201-0.026-0.332-0.077c-0.131-0.051-0.278-0.103-0.443-0.153
	c-0.164-0.051-0.349-0.1-0.553-0.145c-0.205-0.045-0.427-0.068-0.665-0.068c-0.283,0-0.562,0.057-0.834,0.17
	c-0.273,0.114-0.56,0.301-0.86,0.563s-0.616,0.607-0.945,1.039c-0.33,0.431-0.693,0.959-1.091,1.584v10.084
	c0,0.091-0.022,0.167-0.068,0.229c-0.045,0.063-0.119,0.117-0.221,0.162c-0.103,0.045-0.244,0.08-0.426,0.102
	c-0.182,0.023-0.415,0.034-0.699,0.034c-0.272,0-0.499-0.011-0.681-0.034c-0.182-0.022-0.327-0.057-0.435-0.102
	s-0.182-0.1-0.222-0.162c-0.039-0.062-0.06-0.139-0.06-0.229v-15.331c0-0.091,0.018-0.167,0.051-0.23
	c0.034-0.063,0.103-0.119,0.205-0.17c0.102-0.051,0.232-0.085,0.392-0.102s0.369-0.025,0.63-0.025c0.25,0,0.457,0.008,0.622,0.025
	s0.292,0.051,0.384,0.102c0.091,0.051,0.155,0.108,0.195,0.17s0.06,0.139,0.06,0.23v2.231c0.42-0.613,0.815-1.113,1.184-1.499
	c0.369-0.386,0.719-0.69,1.048-0.911c0.329-0.222,0.656-0.375,0.979-0.46c0.324-0.085,0.65-0.128,0.979-0.128
	c0.147,0,0.315,0.009,0.503,0.026s0.383,0.048,0.587,0.093c0.205,0.046,0.39,0.097,0.554,0.153c0.165,0.057,0.281,0.114,0.35,0.17
	c0.068,0.057,0.113,0.111,0.137,0.162c0.022,0.051,0.042,0.116,0.06,0.196c0.017,0.08,0.028,0.196,0.033,0.349
	C492.613,123.646,492.616,123.853,492.616,124.114z"/>
<path d="M498.953,117.931c0,0.659-0.125,1.107-0.375,1.346c-0.25,0.238-0.71,0.357-1.38,0.357c-0.658,0-1.109-0.116-1.354-0.349
	c-0.244-0.232-0.366-0.673-0.366-1.32c0-0.659,0.125-1.107,0.374-1.346c0.25-0.239,0.71-0.358,1.38-0.358
	c0.659,0,1.11,0.116,1.354,0.349S498.953,117.283,498.953,117.931z M498.63,138.44c0,0.091-0.023,0.167-0.068,0.229
	c-0.046,0.063-0.119,0.117-0.222,0.162s-0.244,0.08-0.426,0.102c-0.182,0.023-0.414,0.034-0.698,0.034
	c-0.272,0-0.5-0.011-0.682-0.034c-0.182-0.022-0.326-0.057-0.435-0.102c-0.107-0.045-0.182-0.1-0.221-0.162
	c-0.04-0.062-0.061-0.139-0.061-0.229v-15.331c0-0.08,0.021-0.153,0.061-0.221c0.039-0.068,0.113-0.125,0.221-0.17
	c0.108-0.045,0.253-0.08,0.435-0.103c0.182-0.022,0.409-0.034,0.682-0.034c0.284,0,0.517,0.011,0.698,0.034
	c0.182,0.023,0.323,0.057,0.426,0.103s0.176,0.102,0.222,0.17c0.045,0.068,0.068,0.142,0.068,0.221V138.44z"/>
<path d="M515.374,138.457c0,0.137-0.046,0.239-0.137,0.307c-0.091,0.068-0.216,0.12-0.374,0.153
	c-0.159,0.034-0.393,0.051-0.698,0.051c-0.296,0-0.531-0.017-0.707-0.051c-0.177-0.034-0.304-0.085-0.384-0.153
	c-0.079-0.068-0.119-0.17-0.119-0.307v-1.533c-0.67,0.715-1.417,1.272-2.24,1.669s-1.694,0.596-2.614,0.596
	c-0.807,0-1.536-0.105-2.189-0.315c-0.652-0.21-1.209-0.514-1.669-0.911s-0.817-0.886-1.073-1.465
	c-0.256-0.579-0.383-1.238-0.383-1.976c0-0.863,0.176-1.613,0.527-2.249c0.353-0.636,0.857-1.164,1.517-1.584
	c0.658-0.42,1.465-0.735,2.419-0.945s2.026-0.315,3.219-0.315h2.112v-1.192c0-0.591-0.063-1.113-0.188-1.567
	c-0.124-0.454-0.326-0.832-0.604-1.133c-0.278-0.301-0.639-0.528-1.081-0.681c-0.443-0.153-0.988-0.23-1.636-0.23
	c-0.692,0-1.314,0.083-1.865,0.247s-1.033,0.346-1.448,0.545c-0.414,0.199-0.761,0.38-1.039,0.545
	c-0.277,0.165-0.485,0.247-0.621,0.247c-0.091,0-0.171-0.022-0.238-0.068c-0.068-0.045-0.128-0.114-0.18-0.205
	c-0.051-0.091-0.088-0.207-0.11-0.349s-0.034-0.298-0.034-0.468c0-0.284,0.02-0.508,0.06-0.673s0.137-0.321,0.29-0.469
	c0.153-0.147,0.417-0.321,0.792-0.52s0.806-0.38,1.294-0.545s1.022-0.301,1.602-0.409s1.164-0.162,1.755-0.162
	c1.102,0,2.038,0.125,2.811,0.375c0.772,0.25,1.396,0.616,1.874,1.099c0.477,0.482,0.823,1.082,1.039,1.797
	c0.216,0.716,0.323,1.55,0.323,2.504V138.457z M512.58,131.456h-2.401c-0.772,0-1.442,0.065-2.01,0.196
	c-0.568,0.131-1.039,0.324-1.414,0.58c-0.375,0.255-0.65,0.562-0.826,0.919c-0.176,0.358-0.265,0.77-0.265,1.235
	c0,0.795,0.253,1.428,0.759,1.899c0.505,0.472,1.212,0.707,2.12,0.707c0.738,0,1.423-0.188,2.053-0.562
	c0.631-0.375,1.292-0.948,1.984-1.72V131.456z"/>
</svg>
