<?xml version="1.0" encoding="utf-8"?>
<!-- Generator: Adobe Illustrator 16.0.3, SVG Export Plug-In . SVG Version: 6.00 Build 0)  -->
<!DOCTYPE svg PUBLIC "-//W3C//DTD SVG 1.1//EN" "http://www.w3.org/Graphics/SVG/1.1/DTD/svg11.dtd">
<svg version="1.1" id="Capa_1" xmlns="http://www.w3.org/2000/svg" xmlns:xlink="http://www.w3.org/1999/xlink" x="0px" y="0px"
	 width="30px" height="29.999px" viewBox="0 0 30 29.999" enable-background="new 0 0 30 29.999" xml:space="preserve">
<g>
	<path d="M20.026,9.678c-0.015-0.522,0.441-1.609,1.514-1.639c0.12,0-0.18,0,0,0c0.3-0.01,0.66-0.02,1.04-0.02
		c1.14-0.02,2.229-0.028,2.229-0.028V4.484l-5.402,0.015c0,0-1.358,0.089-2.313,1.251c-1.078,1.313-1.114,2.766-1.114,2.766v5.405
		h-4V18h4v11.998H4.87c-2.69,0-4.87-2.18-4.87-4.869V4.87C0,2.18,2.18,0,4.87,0h20.26C27.82,0,30,2.18,30,4.87v20.26
		c0,2.689-2.18,4.869-4.87,4.869h-5.1L20,18h4.08l0.33-3.951h-4.395"/>
</g>
</svg>
