<?xml version="1.0" encoding="utf-8"?>
<!-- Generator: Adobe Illustrator 16.0.3, SVG Export Plug-In . SVG Version: 6.00 Build 0)  -->
<!DOCTYPE svg PUBLIC "-//W3C//DTD SVG 1.1//EN" "http://www.w3.org/Graphics/SVG/1.1/DTD/svg11.dtd">
<svg version="1.1" id="Capa_1" xmlns="http://www.w3.org/2000/svg" xmlns:xlink="http://www.w3.org/1999/xlink" x="0px" y="0px"
	 width="30px" height="30px" viewBox="-9.803 -2.394 30 30" enable-background="new -9.803 -2.394 30 30" xml:space="preserve">
<g>
	<path d="M15.327-2.394h-20.26c-2.69,0-4.87,2.18-4.87,4.87v20.26c0,2.689,2.18,4.87,4.87,4.87h20.26
		c2.689,0,4.871-2.181,4.871-4.87V2.477C20.197-0.213,18.016-2.394,15.327-2.394z M17.906,21.186c0,2.28-1.84,4.131-4.12,4.131
		h-17.17c-2.28,0-4.13-1.851-4.13-4.131V4.017c0-2.28,1.85-4.12,4.13-4.12h17.17c2.28,0,4.12,1.84,4.12,4.12V21.186z"/>
</g>
<path d="M5.197,4.575c-4.438,0-8.033,3.594-8.033,8.032c0,4.438,3.595,8.032,8.033,8.032c4.438,0,8.032-3.595,8.032-8.032
	C13.229,8.169,9.635,4.575,5.197,4.575z M5.197,19.05c-3.563,0-6.454-2.88-6.454-6.443c0-3.563,2.891-6.454,6.454-6.454
	s6.454,2.891,6.454,6.454C11.651,16.17,8.76,19.05,5.197,19.05z"/>
<circle cx="13.57" cy="4.245" r="1.75"/>
</svg>
