<?xml version="1.0" encoding="utf-8"?>
<!-- Generator: Adobe Illustrator 16.0.3, SVG Export Plug-In . SVG Version: 6.00 Build 0)  -->
<!DOCTYPE svg PUBLIC "-//W3C//DTD SVG 1.1//EN" "http://www.w3.org/Graphics/SVG/1.1/DTD/svg11.dtd">
<svg version="1.1" id="Capa_1" xmlns="http://www.w3.org/2000/svg" xmlns:xlink="http://www.w3.org/1999/xlink" x="0px" y="0px"
	 width="627.445px" height="196.5px" viewBox="0 0 627.445 196.5" enable-background="new 0 0 627.445 196.5" xml:space="preserve">
<path fill="#F8120D" d="M36.5,42.75c46.55,0,98.083,0,103.587,2.151c8.17,3.193,21.746,13.016,20.413,30.599
	c-0.456,6.008,0.091,15.5-6.25,23.277c-4.702,5.768-28.25,33.473-29,33.973s22.435,0.146,29.917,0.5
	c1.312,0.063,2.917,0.667,3.083,4.25c0.164,3.531,0.539,17.462,0,23.25c-0.159,1.709-0.75,3.5-5.75,3.75s-88.5,0-88.5,0
	s-2-0.5-2.25-2.5s0-90.25,0-90.25h-23.5c0,0-1.5,0-1.75-2S36.5,42.75,36.5,42.75z"/>
<circle fill="none" stroke="#000000" stroke-width="5" stroke-miterlimit="10" cx="99.353" cy="98.778" r="94.25"/>
<path fill="#FFFFFF" d="M90.5,72v58h1.25c0,0,39-47.5,39.25-49.5s0-5.75,0-5.75s0.458-2.774-2-2.75
	C125.968,72.029,125.292,71.997,90.5,72z"/>
<path d="M250.411,56.231c0,0.556-0.028,1.037-0.089,1.446c-0.059,0.41-0.154,0.738-0.288,0.986
	c-0.134,0.249-0.296,0.431-0.488,0.548c-0.193,0.116-0.408,0.175-0.645,0.175h-16.151v49.163c0,0.234-0.061,0.438-0.178,0.612
	c-0.118,0.176-0.326,0.315-0.621,0.417c-0.295,0.103-0.688,0.189-1.177,0.263c-0.487,0.074-1.102,0.11-1.84,0.11
	c-0.709,0-1.317-0.036-1.82-0.11c-0.505-0.073-0.904-0.16-1.198-0.263c-0.296-0.102-0.504-0.241-0.622-0.417
	c-0.118-0.175-0.178-0.378-0.178-0.612V59.387h-16.151c-0.238,0-0.451-0.058-0.644-0.175s-0.348-0.3-0.465-0.548
	c-0.119-0.248-0.217-0.576-0.289-0.986c-0.074-0.409-0.112-0.892-0.112-1.446c0-0.554,0.037-1.044,0.112-1.468
	c0.072-0.422,0.169-0.767,0.289-1.03c0.117-0.263,0.272-0.453,0.465-0.57c0.193-0.116,0.406-0.175,0.644-0.175h39.936
	c0.236,0,0.451,0.059,0.645,0.175c0.192,0.117,0.355,0.307,0.488,0.57c0.133,0.262,0.227,0.606,0.288,1.03
	C250.383,55.188,250.411,55.678,250.411,56.231z"/>
<path d="M283.87,87.166c0,1.14-0.291,1.95-0.87,2.433c-0.579,0.481-1.24,0.724-1.984,0.724h-26.3c0,2.19,0.224,4.163,0.667,5.915
	c0.447,1.753,1.191,3.258,2.231,4.513c1.041,1.256,2.394,2.22,4.057,2.892c1.664,0.673,3.7,1.009,6.108,1.009
	c1.902,0,3.596-0.152,5.082-0.46c1.488-0.306,2.771-0.649,3.857-1.03c1.087-0.379,1.979-0.723,2.677-1.029s1.228-0.46,1.583-0.46
	c0.208,0,0.395,0.052,0.557,0.153c0.165,0.102,0.29,0.256,0.379,0.46c0.09,0.204,0.155,0.489,0.201,0.854
	c0.042,0.364,0.068,0.812,0.068,1.337c0,0.381-0.019,0.709-0.046,0.985c-0.03,0.278-0.067,0.526-0.112,0.745
	c-0.044,0.221-0.117,0.417-0.222,0.592c-0.104,0.175-0.236,0.343-0.398,0.505c-0.163,0.161-0.644,0.424-1.442,0.787
	c-0.797,0.364-1.834,0.724-3.105,1.073c-1.271,0.352-2.745,0.664-4.416,0.942c-1.67,0.278-3.453,0.418-5.345,0.418
	c-3.285,0-6.162-0.454-8.631-1.357c-2.47-0.906-4.548-2.25-6.234-4.032c-1.686-1.782-2.958-4.018-3.817-6.705
	c-0.859-2.688-1.287-5.812-1.287-9.376c0-3.389,0.443-6.435,1.331-9.136c0.888-2.702,2.167-4.996,3.84-6.88
	c1.668-1.884,3.689-3.331,6.057-4.338c2.367-1.009,5.015-1.513,7.942-1.513c3.136,0,5.807,0.498,8.011,1.49
	c2.202,0.994,4.016,2.33,5.436,4.008c1.42,1.681,2.464,3.652,3.128,5.916c0.666,2.264,0.999,4.681,0.999,7.252V87.166L283.87,87.166
	z M276.504,85.02c0.089-3.796-0.767-6.776-2.568-8.938c-1.801-2.161-4.472-3.242-8.015-3.242c-1.814,0-3.406,0.336-4.775,1.009
	c-1.37,0.672-2.516,1.563-3.438,2.673c-0.922,1.111-1.636,2.403-2.143,3.878c-0.507,1.475-0.787,3.016-0.848,4.623h21.787V85.02z"/>
<path d="M323.716,102.591c0,0.497-0.014,0.927-0.045,1.292c-0.028,0.365-0.082,0.673-0.152,0.92
	c-0.077,0.249-0.165,0.469-0.269,0.657c-0.102,0.19-0.339,0.469-0.71,0.833c-0.37,0.363-0.998,0.817-1.887,1.359
	c-0.888,0.539-1.885,1.021-2.995,1.444c-1.107,0.423-2.315,0.767-3.615,1.029c-1.304,0.263-2.647,0.394-4.038,0.394
	c-2.869,0-5.413-0.467-7.631-1.399c-2.218-0.936-4.077-2.301-5.568-4.097c-1.494-1.797-2.635-4.003-3.417-6.617
	c-0.786-2.615-1.175-5.632-1.175-9.048c0-3.885,0.479-7.223,1.441-10.013c0.961-2.789,2.277-5.075,3.95-6.858
	c1.671-1.781,3.638-3.103,5.901-3.965c2.262-0.862,4.708-1.292,7.345-1.292c1.271,0,2.505,0.117,3.704,0.351
	c1.198,0.234,2.3,0.541,3.306,0.92c1.005,0.381,1.899,0.817,2.685,1.315c0.783,0.498,1.354,0.921,1.708,1.271
	c0.357,0.35,0.599,0.628,0.732,0.833c0.132,0.204,0.243,0.445,0.331,0.723c0.09,0.279,0.15,0.592,0.179,0.943
	c0.03,0.35,0.044,0.788,0.044,1.314c0,1.139-0.133,1.936-0.399,2.389c-0.265,0.453-0.592,0.679-0.976,0.679
	c-0.444,0-0.954-0.241-1.531-0.724c-0.576-0.481-1.309-1.014-2.196-1.599c-0.886-0.585-1.96-1.118-3.216-1.599
	c-1.259-0.481-2.746-0.724-4.461-0.724c-3.521,0-6.219,1.337-8.098,4.009c-1.878,2.673-2.817,6.551-2.817,11.632
	c0,2.542,0.245,4.77,0.731,6.684c0.49,1.913,1.205,3.512,2.154,4.797c0.946,1.286,2.108,2.241,3.483,2.87
	c1.375,0.628,2.95,0.941,4.726,0.941c1.686,0,3.163-0.262,4.436-0.787c1.271-0.525,2.375-1.103,3.307-1.73
	c0.933-0.628,1.715-1.197,2.353-1.709c0.636-0.512,1.131-0.767,1.486-0.767c0.207,0,0.384,0.06,0.532,0.175
	c0.147,0.117,0.274,0.313,0.378,0.592c0.103,0.279,0.177,0.628,0.222,1.052C323.694,101.502,323.716,102.006,323.716,102.591z"/>
<path d="M367.822,108.594c0,0.234-0.06,0.431-0.177,0.592c-0.119,0.16-0.312,0.3-0.578,0.416c-0.265,0.117-0.637,0.204-1.107,0.263
	c-0.475,0.058-1.064,0.088-1.776,0.088c-0.739,0-1.344-0.03-1.819-0.088c-0.473-0.059-0.843-0.146-1.107-0.263
	c-0.268-0.116-0.459-0.256-0.579-0.416c-0.118-0.161-0.179-0.357-0.179-0.592V85.501c0-2.248-0.177-4.06-0.531-5.434
	c-0.355-1.373-0.873-2.556-1.552-3.549c-0.682-0.992-1.563-1.753-2.641-2.277c-1.08-0.526-2.329-0.79-3.751-0.79
	c-1.833,0-3.667,0.643-5.5,1.929c-1.836,1.286-3.758,3.169-5.77,5.653v27.561c0,0.234-0.06,0.431-0.179,0.592
	c-0.119,0.16-0.311,0.3-0.576,0.416c-0.267,0.117-0.636,0.204-1.109,0.263c-0.472,0.058-1.08,0.088-1.82,0.088
	c-0.708,0-1.298-0.03-1.773-0.088c-0.474-0.059-0.85-0.146-1.132-0.263c-0.282-0.116-0.473-0.256-0.577-0.416
	c-0.104-0.161-0.155-0.357-0.155-0.592V69.158c0-0.234,0.045-0.431,0.135-0.592c0.087-0.16,0.266-0.306,0.533-0.438
	c0.268-0.132,0.605-0.219,1.019-0.263c0.415-0.044,0.962-0.066,1.644-0.066c0.651,0,1.191,0.022,1.618,0.066
	c0.428,0.043,0.763,0.132,0.997,0.263c0.235,0.13,0.408,0.278,0.512,0.438c0.103,0.161,0.154,0.357,0.154,0.592v5.215
	c2.248-2.482,4.49-4.301,6.724-5.456c2.235-1.154,4.488-1.731,6.768-1.731c2.661,0,4.903,0.447,6.723,1.337
	c1.819,0.892,3.291,2.082,4.415,3.571c1.124,1.49,1.929,3.235,2.416,5.236c0.489,2.001,0.733,4.403,0.733,7.207V108.594
	L367.822,108.594z"/>
<path d="M389.342,55.838c0,1.694-0.324,2.848-0.977,3.461c-0.651,0.613-1.849,0.919-3.595,0.919c-1.716,0-2.892-0.299-3.527-0.898
	c-0.638-0.598-0.953-1.73-0.953-3.396c0-1.692,0.325-2.847,0.975-3.46c0.652-0.613,1.851-0.92,3.596-0.92
	c1.715,0,2.893,0.3,3.528,0.898S389.342,54.173,389.342,55.838z M388.5,108.594c0,0.234-0.06,0.431-0.178,0.592
	c-0.118,0.16-0.313,0.3-0.577,0.416c-0.267,0.117-0.638,0.204-1.109,0.263c-0.473,0.058-1.079,0.088-1.819,0.088
	c-0.71,0-1.302-0.03-1.775-0.088c-0.474-0.059-0.851-0.146-1.132-0.263c-0.28-0.116-0.474-0.256-0.577-0.416
	c-0.102-0.161-0.153-0.357-0.153-0.592V69.158c0-0.203,0.052-0.394,0.153-0.569c0.104-0.175,0.297-0.321,0.577-0.438
	c0.281-0.116,0.658-0.204,1.132-0.263c0.474-0.058,1.063-0.087,1.775-0.087c0.74,0,1.345,0.028,1.819,0.087
	c0.473,0.059,0.843,0.147,1.109,0.263c0.265,0.117,0.459,0.263,0.577,0.438c0.118,0.175,0.178,0.366,0.178,0.569V108.594z"/>
<path d="M430.742,102.591c0,0.497-0.016,0.927-0.043,1.292c-0.03,0.365-0.082,0.673-0.156,0.92
	c-0.073,0.248-0.161,0.469-0.266,0.657c-0.104,0.19-0.34,0.469-0.708,0.833c-0.369,0.363-0.999,0.817-1.887,1.359
	c-0.888,0.539-1.887,1.021-2.995,1.444c-1.109,0.423-2.314,0.767-3.617,1.029c-1.301,0.263-2.646,0.394-4.036,0.394
	c-2.869,0-5.415-0.467-7.633-1.399c-2.218-0.936-4.075-2.301-5.568-4.097c-1.495-1.797-2.634-4.003-3.418-6.617
	c-0.782-2.615-1.176-5.632-1.176-9.048c0-3.885,0.483-7.223,1.445-10.013c0.96-2.789,2.275-5.075,3.946-6.858
	c1.673-1.781,3.64-3.103,5.901-3.965c2.264-0.862,4.713-1.292,7.346-1.292c1.271,0,2.507,0.117,3.706,0.351
	c1.197,0.234,2.298,0.541,3.306,0.92c1.005,0.381,1.901,0.817,2.683,1.315c0.785,0.498,1.354,0.921,1.711,1.271
	c0.354,0.35,0.597,0.628,0.731,0.833c0.135,0.204,0.244,0.445,0.332,0.723c0.088,0.279,0.147,0.592,0.177,0.943
	c0.03,0.35,0.046,0.788,0.046,1.314c0,1.139-0.135,1.936-0.401,2.389c-0.266,0.453-0.592,0.679-0.975,0.679
	c-0.443,0-0.954-0.241-1.531-0.724s-1.309-1.014-2.196-1.599c-0.887-0.585-1.958-1.118-3.217-1.599
	c-1.257-0.481-2.744-0.724-4.458-0.724c-3.521,0-6.22,1.337-8.098,4.009c-1.879,2.673-2.817,6.551-2.817,11.632
	c0,2.542,0.244,4.77,0.732,6.684c0.487,1.913,1.204,3.512,2.149,4.797c0.947,1.286,2.109,2.241,3.487,2.87
	c1.374,0.628,2.95,0.941,4.724,0.941c1.686,0,3.165-0.262,4.438-0.787s2.373-1.103,3.307-1.73c0.933-0.628,1.716-1.197,2.352-1.709
	c0.637-0.512,1.132-0.767,1.487-0.767c0.206,0,0.383,0.06,0.533,0.175c0.146,0.117,0.272,0.313,0.374,0.592
	c0.105,0.279,0.179,0.628,0.224,1.052C430.727,101.504,430.742,102.006,430.742,102.591z"/>
<path d="M469.788,108.637c0,0.351-0.119,0.614-0.355,0.789c-0.235,0.175-0.562,0.306-0.977,0.395
	c-0.413,0.088-1.02,0.132-1.818,0.132c-0.77,0-1.383-0.044-1.841-0.132c-0.459-0.089-0.791-0.22-0.998-0.395
	c-0.209-0.175-0.313-0.438-0.313-0.789v-3.945c-1.742,1.842-3.69,3.273-5.833,4.295c-2.145,1.024-4.416,1.533-6.81,1.533
	c-2.102,0-4.002-0.271-5.704-0.81c-1.701-0.54-3.149-1.322-4.349-2.346c-1.198-1.022-2.13-2.278-2.795-3.768
	c-0.667-1.489-0.998-3.183-0.998-5.083c0-2.221,0.459-4.147,1.375-5.784c0.917-1.637,2.234-2.995,3.949-4.076
	c1.716-1.08,3.817-1.891,6.3-2.431c2.485-0.541,5.282-0.811,8.388-0.811h5.502v-3.067c0-1.518-0.164-2.863-0.487-4.031
	c-0.326-1.168-0.851-2.139-1.574-2.914c-0.725-0.773-1.665-1.358-2.818-1.752c-1.154-0.394-2.574-0.591-4.261-0.591
	c-1.804,0-3.423,0.212-4.856,0.634c-1.437,0.423-2.694,0.892-3.772,1.402c-1.081,0.512-1.983,0.979-2.708,1.402
	c-0.723,0.423-1.265,0.636-1.618,0.636c-0.236,0-0.444-0.058-0.621-0.175c-0.177-0.116-0.333-0.292-0.465-0.526
	c-0.135-0.234-0.231-0.533-0.289-0.898c-0.061-0.364-0.089-0.766-0.089-1.205c0-0.729,0.052-1.307,0.154-1.731
	c0.104-0.422,0.355-0.825,0.755-1.205c0.4-0.379,1.088-0.825,2.064-1.336c0.977-0.51,2.099-0.979,3.374-1.401
	c1.271-0.423,2.661-0.773,4.17-1.052c1.51-0.277,3.033-0.417,4.57-0.417c2.868,0,5.308,0.323,7.322,0.964
	c2.011,0.642,3.637,1.585,4.88,2.826c1.242,1.243,2.146,2.782,2.706,4.624c0.563,1.84,0.842,3.987,0.842,6.44L469.788,108.637
	L469.788,108.637z M462.513,90.629h-6.257c-2.012,0-3.757,0.168-5.235,0.504c-1.479,0.336-2.706,0.833-3.684,1.49
	c-0.977,0.658-1.692,1.446-2.152,2.367c-0.459,0.919-0.687,1.979-0.687,3.176c0,2.045,0.656,3.672,1.975,4.885
	c1.316,1.212,3.154,1.817,5.523,1.817c1.923,0,3.705-0.481,5.347-1.444c1.641-0.965,3.366-2.439,5.17-4.426V90.629L462.513,90.629z"
	/>
<path fill="#F8120D" d="M548.019,106.578c0,0.585-0.1,1.082-0.298,1.488c-0.199,0.41-0.458,0.746-0.781,1.009
	c-0.321,0.263-0.679,0.453-1.078,0.57c-0.397,0.116-0.796,0.175-1.193,0.175h-2.524c-0.795,0-1.493-0.08-2.088-0.241
	c-0.596-0.16-1.163-0.451-1.697-0.875c-0.535-0.425-1.07-1-1.606-1.731c-0.538-0.729-1.104-1.663-1.703-2.803l-17.518-32.25
	c-0.915-1.665-1.838-3.412-2.77-5.236c-0.929-1.824-1.794-3.599-2.597-5.323h-0.088c0.06,2.103,0.104,4.25,0.134,6.441
	c0.03,2.19,0.044,4.368,0.044,6.528v34.22c0,0.205-0.063,0.402-0.187,0.593c-0.126,0.19-0.336,0.336-0.633,0.437
	c-0.299,0.103-0.688,0.191-1.169,0.266c-0.485,0.071-1.104,0.11-1.851,0.11c-0.749,0-1.366-0.037-1.848-0.11
	c-0.484-0.074-0.868-0.163-1.148-0.266c-0.281-0.101-0.483-0.246-0.607-0.437c-0.126-0.19-0.188-0.388-0.188-0.593V56.231
	c0-1.168,0.335-2,1.006-2.497c0.672-0.497,1.406-0.746,2.199-0.746h3.757c0.884,0,1.624,0.073,2.22,0.22
	c0.597,0.147,1.13,0.387,1.604,0.723c0.473,0.336,0.932,0.805,1.374,1.401c0.441,0.6,0.908,1.351,1.393,2.257l13.468,24.888
	c0.827,1.518,1.625,3.001,2.399,4.447c0.772,1.446,1.517,2.869,2.229,4.271c0.716,1.402,1.424,2.783,2.124,4.141
	c0.703,1.357,1.396,2.724,2.081,4.097h0.044c-0.059-2.307-0.096-4.71-0.111-7.207c-0.014-2.497-0.021-4.9-0.021-7.208V54.261
	c0-0.204,0.063-0.394,0.188-0.569c0.125-0.175,0.334-0.33,0.63-0.46c0.299-0.132,0.688-0.226,1.171-0.285
	c0.483-0.058,1.116-0.087,1.896-0.087c0.688,0,1.28,0.028,1.781,0.087c0.498,0.059,0.889,0.153,1.17,0.285
	c0.28,0.132,0.483,0.285,0.607,0.46c0.126,0.175,0.188,0.365,0.188,0.569v52.317H548.019z"/>
<path fill="#F8120D" d="M581.875,60.044c0,1.432-0.273,2.775-0.823,4.031c-0.546,1.256-1.316,2.36-2.307,3.308
	c-0.99,0.95-2.158,1.687-3.506,2.213c-1.345,0.526-2.802,0.788-4.369,0.788s-2.995-0.24-4.28-0.723
	c-1.288-0.481-2.407-1.162-3.353-2.037c-0.947-0.876-1.686-1.928-2.22-3.155c-0.532-1.228-0.799-2.586-0.799-4.076
	s0.282-2.87,0.843-4.14c0.563-1.271,1.341-2.358,2.33-3.265c0.992-0.905,2.152-1.622,3.484-2.147
	c1.331-0.526,2.781-0.788,4.347-0.788c1.539,0,2.959,0.248,4.262,0.745c1.301,0.498,2.425,1.177,3.373,2.039
	c0.944,0.862,1.687,1.905,2.22,3.133C581.607,57.195,581.875,58.554,581.875,60.044z M576.283,60.218
	c0-0.788-0.134-1.526-0.398-2.213c-0.265-0.685-0.636-1.277-1.109-1.773c-0.471-0.496-1.034-0.883-1.686-1.161
	s-1.36-0.417-2.128-0.417c-0.74,0-1.429,0.139-2.064,0.417c-0.637,0.278-1.191,0.664-1.664,1.161
	c-0.475,0.498-0.845,1.082-1.11,1.752c-0.264,0.672-0.398,1.388-0.398,2.147c0,0.848,0.135,1.622,0.398,2.323
	c0.266,0.7,0.646,1.3,1.132,1.796c0.488,0.498,1.066,0.884,1.731,1.161c0.667,0.278,1.384,0.417,2.152,0.417
	c0.71,0,1.384-0.145,2.019-0.438c0.637-0.292,1.184-0.694,1.643-1.205c0.457-0.511,0.821-1.102,1.087-1.775
	C576.149,61.738,576.283,61.008,576.283,60.218z"/>
<path fill="#F8120D" d="M627.445,106.446c0,0.525-0.037,0.993-0.109,1.401c-0.075,0.408-0.179,0.752-0.312,1.029
	c-0.135,0.277-0.313,0.482-0.534,0.613c-0.222,0.132-0.467,0.197-0.733,0.197h-31.726c-0.413,0-0.775-0.053-1.087-0.154
	s-0.577-0.271-0.799-0.504c-0.224-0.235-0.385-0.568-0.488-1.009c-0.103-0.438-0.154-0.978-0.154-1.621
	c0-0.586,0.024-1.096,0.069-1.534c0.047-0.438,0.144-0.826,0.296-1.16c0.154-0.337,0.344-0.673,0.573-1.01
	c0.229-0.336,0.525-0.693,0.892-1.072l11.477-11.656c2.652-2.688,4.777-5.098,6.38-7.229c1.6-2.131,2.833-4.074,3.704-5.828
	c0.868-1.752,1.438-3.344,1.713-4.776c0.275-1.431,0.412-2.774,0.412-4.032c0-1.256-0.212-2.446-0.641-3.572
	c-0.428-1.124-1.046-2.109-1.854-2.958c-0.809-0.848-1.824-1.518-3.043-2.016c-1.222-0.496-2.628-0.745-4.214-0.745
	c-1.861,0-3.533,0.249-5.014,0.745c-1.479,0.498-2.777,1.037-3.89,1.622c-1.115,0.585-2.048,1.124-2.794,1.622
	c-0.749,0.497-1.306,0.745-1.673,0.745c-0.213,0-0.404-0.058-0.571-0.175c-0.168-0.116-0.306-0.307-0.414-0.568
	c-0.105-0.264-0.19-0.613-0.251-1.052c-0.062-0.438-0.091-0.964-0.091-1.577c0-0.439,0.015-0.818,0.045-1.139
	c0.027-0.321,0.08-0.599,0.153-0.833c0.075-0.233,0.17-0.453,0.288-0.657c0.118-0.204,0.355-0.459,0.709-0.766
	c0.355-0.307,0.971-0.724,1.843-1.25c0.873-0.526,1.968-1.044,3.284-1.555c1.315-0.512,2.765-0.943,4.347-1.293
	c1.583-0.349,3.247-0.525,4.992-0.525c2.78,0,5.214,0.388,7.3,1.162c2.085,0.775,3.814,1.833,5.193,3.177
	c1.374,1.343,2.402,2.906,3.083,4.688c0.681,1.781,1.021,3.68,1.021,5.696c0,1.812-0.162,3.615-0.488,5.411
	c-0.323,1.797-1.014,3.74-2.063,5.828c-1.052,2.088-2.566,4.411-4.55,6.967c-1.981,2.556-4.616,5.5-7.897,8.829l-9.098,9.377h24.983
	c0.236,0,0.465,0.065,0.688,0.196c0.223,0.13,0.413,0.329,0.578,0.593c0.161,0.262,0.28,0.59,0.355,0.984
	C627.408,105.46,627.445,105.921,627.445,106.446z"/>
<path d="M236.834,145.563c0,0.191-0.01,0.36-0.032,0.505c-0.021,0.145-0.059,0.264-0.111,0.36c-0.054,0.096-0.115,0.166-0.185,0.208
	c-0.069,0.042-0.146,0.063-0.232,0.063h-9.947c-0.246,0-0.478-0.083-0.697-0.249c-0.219-0.165-0.328-0.455-0.328-0.872v-18.487
	c0-0.416,0.109-0.707,0.328-0.872c0.219-0.165,0.452-0.248,0.697-0.248h9.835c0.085,0,0.163,0.022,0.232,0.064
	c0.07,0.042,0.126,0.112,0.168,0.208c0.042,0.097,0.077,0.216,0.104,0.359c0.026,0.145,0.04,0.323,0.04,0.537
	c0,0.193-0.013,0.36-0.04,0.506c-0.027,0.144-0.061,0.262-0.104,0.353c-0.042,0.091-0.099,0.156-0.168,0.2
	c-0.069,0.042-0.146,0.063-0.232,0.063h-8.106v6.504h6.952c0.085,0,0.163,0.024,0.232,0.074c0.069,0.048,0.127,0.113,0.176,0.2
	c0.048,0.084,0.083,0.202,0.104,0.353c0.021,0.148,0.032,0.326,0.032,0.528c0,0.192-0.011,0.357-0.032,0.496
	c-0.021,0.138-0.057,0.251-0.104,0.337c-0.048,0.086-0.106,0.146-0.176,0.184c-0.07,0.038-0.147,0.057-0.232,0.057h-6.952v7.417
	h8.218c0.086,0,0.163,0.021,0.232,0.063c0.07,0.045,0.131,0.11,0.185,0.2c0.053,0.091,0.091,0.208,0.111,0.354
	C236.824,145.17,236.834,145.35,236.834,145.563z"/>
<path d="M250.066,142.376c0,0.736-0.137,1.394-0.409,1.97c-0.273,0.575-0.66,1.063-1.162,1.457
	c-0.502,0.396-1.101,0.694-1.794,0.897c-0.694,0.203-1.458,0.304-2.291,0.304c-0.513,0-1-0.039-1.467-0.119
	c-0.465-0.081-0.881-0.182-1.249-0.305c-0.369-0.122-0.681-0.252-0.938-0.385c-0.256-0.134-0.443-0.255-0.56-0.36
	c-0.118-0.107-0.204-0.256-0.256-0.449c-0.054-0.192-0.08-0.452-0.08-0.784c0-0.202,0.011-0.373,0.032-0.513
	c0.021-0.138,0.048-0.25,0.08-0.335c0.032-0.085,0.077-0.146,0.136-0.185c0.059-0.036,0.125-0.057,0.2-0.057
	c0.118,0,0.292,0.073,0.521,0.217s0.512,0.302,0.849,0.472c0.337,0.171,0.735,0.329,1.193,0.474
	c0.459,0.144,0.988,0.216,1.587,0.216c0.448,0,0.854-0.048,1.217-0.144c0.362-0.098,0.679-0.238,0.945-0.425
	c0.267-0.188,0.472-0.424,0.617-0.712c0.145-0.29,0.217-0.632,0.217-1.026c0-0.406-0.105-0.747-0.313-1.024
	c-0.209-0.277-0.483-0.522-0.825-0.738c-0.341-0.213-0.727-0.401-1.153-0.567c-0.428-0.165-0.868-0.339-1.322-0.521
	c-0.453-0.182-0.896-0.388-1.33-0.617c-0.432-0.229-0.819-0.509-1.161-0.84c-0.342-0.332-0.617-0.727-0.825-1.186
	c-0.208-0.46-0.313-1.01-0.313-1.649c0-0.566,0.109-1.107,0.328-1.626s0.547-0.972,0.985-1.362c0.437-0.39,0.984-0.702,1.641-0.938
	c0.658-0.234,1.422-0.353,2.299-0.353c0.384,0,0.77,0.031,1.153,0.097c0.385,0.063,0.732,0.145,1.042,0.239
	c0.31,0.096,0.573,0.201,0.792,0.313c0.218,0.112,0.385,0.212,0.497,0.296c0.112,0.086,0.188,0.16,0.224,0.224
	c0.039,0.064,0.064,0.138,0.081,0.217c0.016,0.08,0.031,0.179,0.048,0.296c0.016,0.118,0.024,0.262,0.024,0.434
	c0,0.181-0.009,0.339-0.024,0.472c-0.017,0.134-0.042,0.243-0.081,0.329c-0.037,0.086-0.083,0.147-0.136,0.184
	c-0.053,0.039-0.112,0.058-0.176,0.058c-0.096,0-0.235-0.06-0.417-0.177c-0.182-0.117-0.417-0.242-0.706-0.377
	c-0.288-0.134-0.627-0.259-1.018-0.376c-0.39-0.118-0.835-0.176-1.337-0.176c-0.448,0-0.843,0.051-1.186,0.152
	c-0.343,0.103-0.623,0.245-0.84,0.433c-0.221,0.188-0.386,0.41-0.498,0.665c-0.111,0.256-0.167,0.534-0.167,0.833
	c0,0.416,0.105,0.767,0.32,1.05c0.214,0.283,0.49,0.531,0.833,0.745c0.34,0.214,0.732,0.406,1.169,0.575
	c0.438,0.172,0.883,0.348,1.337,0.529s0.902,0.385,1.346,0.607c0.443,0.225,0.834,0.498,1.177,0.817
	c0.342,0.322,0.617,0.706,0.825,1.155C249.962,141.223,250.066,141.757,250.066,142.376z"/>
<path d="M264.211,144.105c0,0.183-0.006,0.34-0.016,0.473c-0.011,0.134-0.029,0.245-0.057,0.336c-0.028,0.092-0.06,0.172-0.096,0.24
	c-0.038,0.07-0.123,0.171-0.255,0.306c-0.135,0.133-0.361,0.298-0.682,0.495c-0.321,0.198-0.682,0.373-1.082,0.529
	s-0.836,0.281-1.305,0.377c-0.47,0.097-0.956,0.144-1.458,0.144c-1.036,0-1.954-0.172-2.755-0.513
	c-0.802-0.341-1.471-0.84-2.011-1.497s-0.951-1.464-1.233-2.419c-0.284-0.955-0.424-2.058-0.424-3.309c0-1.42,0.174-2.64,0.521-3.66
	s0.823-1.855,1.425-2.507c0.604-0.652,1.313-1.136,2.13-1.45c0.817-0.315,1.701-0.473,2.65-0.473c0.459,0,0.906,0.043,1.338,0.128
	c0.433,0.086,0.831,0.198,1.193,0.337c0.363,0.139,0.686,0.299,0.969,0.48s0.488,0.336,0.617,0.465
	c0.128,0.128,0.217,0.229,0.265,0.305s0.089,0.162,0.12,0.265c0.032,0.101,0.054,0.216,0.063,0.344
	c0.011,0.128,0.017,0.288,0.017,0.48c0,0.416-0.048,0.707-0.145,0.874c-0.096,0.165-0.213,0.248-0.352,0.248
	c-0.16,0-0.345-0.089-0.554-0.264c-0.208-0.178-0.473-0.372-0.792-0.586c-0.319-0.213-0.707-0.408-1.162-0.584
	c-0.453-0.178-0.991-0.265-1.61-0.265c-1.271,0-2.246,0.488-2.923,1.466c-0.678,0.977-1.017,2.395-1.017,4.254
	c0,0.929,0.088,1.742,0.264,2.442c0.177,0.7,0.436,1.284,0.777,1.754c0.341,0.471,0.761,0.82,1.257,1.049
	c0.496,0.229,1.065,0.346,1.707,0.346c0.608,0,1.142-0.098,1.602-0.289c0.458-0.193,0.857-0.403,1.193-0.633
	c0.337-0.229,0.62-0.439,0.85-0.626c0.229-0.188,0.409-0.28,0.536-0.28c0.075,0,0.139,0.021,0.193,0.064
	c0.053,0.042,0.099,0.114,0.136,0.216c0.038,0.103,0.064,0.229,0.081,0.385C264.203,143.707,264.211,143.893,264.211,144.105z"/>
<path d="M280.07,146.301c0,0.085-0.021,0.157-0.058,0.215c-0.037,0.06-0.104,0.11-0.2,0.152c-0.096,0.042-0.221,0.075-0.375,0.096
	c-0.155,0.021-0.346,0.033-0.569,0.033c-0.245,0-0.445-0.012-0.601-0.033c-0.154-0.021-0.277-0.054-0.369-0.096
	c-0.091-0.042-0.151-0.094-0.184-0.152c-0.031-0.058-0.048-0.131-0.048-0.215v-1.906c-0.822,0.907-1.634,1.57-2.436,1.986
	s-1.612,0.624-2.435,0.624c-0.961,0-1.771-0.159-2.427-0.48c-0.657-0.321-1.189-0.757-1.594-1.306
	c-0.406-0.549-0.697-1.19-0.873-1.921c-0.177-0.733-0.264-1.621-0.264-2.668v-8.746c0-0.086,0.018-0.157,0.056-0.216
	c0.038-0.061,0.109-0.112,0.216-0.16c0.106-0.049,0.246-0.081,0.417-0.097s0.385-0.022,0.641-0.022s0.471,0.007,0.641,0.022
	c0.172,0.016,0.308,0.048,0.408,0.097c0.103,0.048,0.175,0.101,0.217,0.16c0.042,0.058,0.064,0.13,0.064,0.216v8.394
	c0,0.844,0.061,1.52,0.184,2.026c0.123,0.508,0.31,0.94,0.563,1.298c0.249,0.357,0.567,0.637,0.952,0.833
	c0.385,0.198,0.833,0.297,1.346,0.297c0.662,0,1.322-0.235,1.979-0.705c0.656-0.471,1.354-1.158,2.091-2.067v-10.075
	c0-0.086,0.02-0.157,0.057-0.216c0.037-0.061,0.109-0.112,0.217-0.16c0.106-0.049,0.242-0.081,0.407-0.097
	c0.167-0.016,0.382-0.022,0.649-0.022c0.256,0,0.47,0.007,0.641,0.022c0.172,0.016,0.305,0.048,0.401,0.097
	c0.096,0.048,0.169,0.101,0.215,0.16c0.047,0.058,0.073,0.13,0.073,0.216v14.417H280.07z"/>
<path d="M297.259,138.467c0,0.417-0.106,0.713-0.314,0.89c-0.21,0.176-0.449,0.264-0.717,0.264h-9.494
	c0,0.801,0.079,1.521,0.24,2.162c0.161,0.642,0.429,1.191,0.806,1.649c0.374,0.459,0.863,0.812,1.465,1.058s1.336,0.369,2.205,0.369
	c0.687,0,1.298-0.057,1.834-0.169c0.537-0.112,1.001-0.238,1.394-0.376c0.392-0.14,0.714-0.265,0.964-0.377
	c0.254-0.111,0.445-0.167,0.572-0.167c0.075,0,0.141,0.019,0.201,0.056c0.06,0.038,0.104,0.094,0.136,0.169
	c0.032,0.075,0.059,0.178,0.074,0.312c0.017,0.135,0.023,0.296,0.023,0.489c0,0.14-0.006,0.259-0.016,0.359
	c-0.012,0.104-0.024,0.193-0.04,0.274c-0.017,0.078-0.044,0.152-0.08,0.216c-0.038,0.063-0.086,0.125-0.145,0.185
	c-0.059,0.059-0.232,0.155-0.521,0.288c-0.289,0.134-0.662,0.265-1.121,0.393c-0.459,0.127-0.991,0.243-1.595,0.344
	c-0.603,0.102-1.246,0.152-1.93,0.152c-1.186,0-2.224-0.165-3.116-0.496c-0.892-0.332-1.642-0.822-2.251-1.475
	c-0.609-0.651-1.068-1.469-1.378-2.45s-0.465-2.125-0.465-3.429c0-1.238,0.16-2.352,0.48-3.34s0.782-1.825,1.387-2.515
	c0.604-0.688,1.333-1.218,2.186-1.587c0.854-0.367,1.812-0.553,2.868-0.553c1.133,0,2.096,0.182,2.892,0.546
	c0.796,0.361,1.449,0.853,1.963,1.466c0.513,0.613,0.889,1.335,1.128,2.162c0.241,0.828,0.362,1.711,0.362,2.651v0.479H297.259z
	 M294.599,137.682c0.032-1.39-0.276-2.479-0.927-3.269c-0.65-0.789-1.614-1.185-2.893-1.185c-0.655,0-1.23,0.123-1.725,0.369
	c-0.493,0.246-0.907,0.571-1.241,0.978c-0.333,0.405-0.591,0.878-0.772,1.417c-0.183,0.539-0.285,1.103-0.307,1.689H294.599z"/>
<path d="M303.922,146.301c0,0.085-0.021,0.157-0.064,0.215c-0.042,0.06-0.111,0.11-0.207,0.152
	c-0.098,0.042-0.229,0.075-0.402,0.096c-0.171,0.021-0.389,0.033-0.656,0.033c-0.256,0-0.469-0.012-0.641-0.033
	c-0.171-0.021-0.308-0.054-0.409-0.096s-0.17-0.094-0.208-0.152c-0.038-0.058-0.057-0.131-0.057-0.215v-21.401
	c0-0.087,0.019-0.16,0.057-0.225s0.105-0.117,0.208-0.159c0.101-0.043,0.238-0.075,0.409-0.098c0.172-0.021,0.384-0.031,0.641-0.031
	c0.268,0,0.486,0.01,0.656,0.031c0.173,0.022,0.305,0.054,0.402,0.098c0.096,0.042,0.165,0.095,0.207,0.159
	c0.043,0.064,0.064,0.138,0.064,0.225V146.301z"/>
<path d="M319.669,146.315c0,0.129-0.044,0.225-0.129,0.288c-0.086,0.064-0.203,0.114-0.354,0.146
	c-0.149,0.031-0.368,0.048-0.656,0.048c-0.277,0-0.498-0.017-0.665-0.048c-0.165-0.033-0.285-0.081-0.359-0.146
	c-0.075-0.063-0.112-0.159-0.112-0.288v-1.441c-0.63,0.672-1.333,1.196-2.105,1.57c-0.774,0.372-1.595,0.56-2.46,0.56
	c-0.758,0-1.443-0.099-2.058-0.296c-0.613-0.198-1.138-0.483-1.569-0.857c-0.433-0.373-0.77-0.833-1.009-1.377
	c-0.241-0.544-0.362-1.165-0.362-1.858c0-0.812,0.167-1.517,0.497-2.115c0.332-0.599,0.807-1.095,1.426-1.489
	s1.378-0.691,2.275-0.889c0.896-0.198,1.905-0.296,3.028-0.296h1.986v-1.121c0-0.556-0.06-1.046-0.178-1.475
	c-0.117-0.426-0.307-0.782-0.567-1.065c-0.262-0.282-0.602-0.495-1.018-0.64s-0.93-0.216-1.538-0.216
	c-0.651,0-1.235,0.077-1.753,0.231c-0.52,0.154-0.973,0.325-1.362,0.513s-0.716,0.357-0.978,0.512
	c-0.262,0.156-0.456,0.233-0.585,0.233c-0.085,0-0.159-0.021-0.224-0.064c-0.063-0.044-0.12-0.107-0.168-0.192
	c-0.048-0.086-0.083-0.194-0.104-0.329c-0.021-0.133-0.032-0.279-0.032-0.439c0-0.268,0.019-0.478,0.057-0.633
	c0.037-0.155,0.128-0.302,0.271-0.44c0.145-0.139,0.394-0.303,0.745-0.489c0.353-0.188,0.759-0.357,1.218-0.513
	s0.962-0.283,1.506-0.385c0.546-0.102,1.095-0.153,1.65-0.153c1.036,0,1.917,0.118,2.644,0.354c0.726,0.234,1.313,0.58,1.762,1.033
	c0.449,0.454,0.774,1.018,0.978,1.69s0.305,1.457,0.305,2.354v9.724H319.669z M317.042,139.732h-2.259
	c-0.726,0-1.355,0.061-1.89,0.184c-0.533,0.123-0.978,0.305-1.33,0.546c-0.352,0.239-0.61,0.529-0.776,0.864
	c-0.166,0.337-0.249,0.725-0.249,1.161c0,0.748,0.238,1.343,0.713,1.786c0.477,0.444,1.141,0.664,1.995,0.664
	c0.693,0,1.337-0.176,1.931-0.528c0.592-0.353,1.215-0.892,1.865-1.616V139.732z"/>
<path d="M344.723,142.871c0,0.738-0.137,1.395-0.409,1.972c-0.271,0.576-0.658,1.063-1.16,1.457s-1.1,0.693-1.794,0.897
	c-0.694,0.203-1.458,0.303-2.291,0.303c-0.512,0-1.001-0.038-1.466-0.119c-0.465-0.079-0.882-0.181-1.25-0.305
	c-0.368-0.121-0.681-0.25-0.938-0.384c-0.255-0.135-0.443-0.254-0.561-0.36c-0.118-0.107-0.203-0.256-0.256-0.448
	s-0.079-0.454-0.079-0.784c0-0.204,0.011-0.375,0.031-0.514s0.048-0.251,0.079-0.335c0.032-0.085,0.077-0.147,0.137-0.185
	c0.06-0.038,0.126-0.056,0.201-0.056c0.117,0,0.291,0.071,0.521,0.216c0.229,0.144,0.512,0.302,0.85,0.472
	c0.335,0.172,0.733,0.33,1.192,0.473c0.46,0.144,0.989,0.217,1.587,0.217c0.449,0,0.854-0.048,1.218-0.144
	c0.363-0.097,0.678-0.238,0.945-0.426s0.472-0.424,0.616-0.713c0.144-0.288,0.216-0.63,0.216-1.024c0-0.406-0.103-0.748-0.313-1.025
	c-0.208-0.277-0.483-0.523-0.825-0.738c-0.341-0.213-0.725-0.402-1.153-0.567c-0.428-0.165-0.867-0.338-1.321-0.521
	c-0.453-0.181-0.897-0.388-1.329-0.616c-0.433-0.229-0.82-0.511-1.161-0.842c-0.342-0.33-0.616-0.725-0.825-1.186
	c-0.209-0.46-0.312-1.009-0.312-1.649c0-0.566,0.108-1.108,0.327-1.626c0.22-0.518,0.548-0.972,0.985-1.362
	c0.438-0.39,0.985-0.702,1.643-0.938c0.656-0.235,1.423-0.353,2.299-0.353c0.384,0,0.768,0.032,1.153,0.098
	c0.385,0.064,0.73,0.143,1.041,0.239c0.31,0.097,0.573,0.2,0.793,0.313c0.219,0.111,0.385,0.21,0.497,0.297
	c0.11,0.084,0.186,0.159,0.223,0.223c0.038,0.063,0.064,0.137,0.08,0.216c0.018,0.081,0.032,0.18,0.05,0.297
	c0.016,0.117,0.022,0.262,0.022,0.433c0,0.182-0.008,0.34-0.022,0.472c-0.018,0.135-0.044,0.244-0.081,0.329
	c-0.037,0.086-0.084,0.146-0.137,0.186c-0.054,0.037-0.112,0.055-0.177,0.055c-0.096,0-0.234-0.059-0.416-0.176
	c-0.182-0.118-0.417-0.242-0.705-0.377c-0.288-0.132-0.627-0.258-1.017-0.375c-0.391-0.118-0.836-0.176-1.338-0.176
	c-0.449,0-0.844,0.051-1.186,0.152c-0.343,0.102-0.622,0.244-0.842,0.432c-0.218,0.188-0.385,0.409-0.496,0.665
	s-0.169,0.534-0.169,0.834c0,0.417,0.107,0.766,0.321,1.049c0.214,0.282,0.49,0.531,0.834,0.745
	c0.341,0.214,0.729,0.406,1.168,0.577c0.438,0.169,0.883,0.346,1.338,0.527c0.454,0.182,0.902,0.386,1.347,0.609
	c0.442,0.224,0.835,0.496,1.177,0.816s0.616,0.705,0.825,1.154C344.619,141.72,344.723,142.253,344.723,142.871z"/>
<path d="M360.807,138.963c0,0.417-0.104,0.714-0.314,0.889c-0.209,0.178-0.448,0.265-0.715,0.265h-9.495
	c0,0.801,0.08,1.522,0.24,2.164c0.162,0.639,0.43,1.19,0.805,1.649c0.375,0.458,0.864,0.811,1.467,1.056
	c0.601,0.246,1.335,0.369,2.205,0.369c0.686,0,1.297-0.057,1.834-0.169c0.536-0.111,1.001-0.236,1.393-0.375
	s0.714-0.265,0.965-0.376c0.253-0.112,0.443-0.169,0.572-0.169c0.075,0,0.14,0.019,0.2,0.057c0.06,0.037,0.105,0.092,0.137,0.167
	c0.032,0.076,0.058,0.181,0.073,0.313c0.017,0.134,0.023,0.298,0.023,0.489c0,0.139-0.005,0.259-0.017,0.361
	c-0.011,0.101-0.023,0.193-0.04,0.271c-0.016,0.081-0.043,0.152-0.08,0.217s-0.085,0.125-0.143,0.184
	c-0.06,0.061-0.232,0.156-0.522,0.29c-0.288,0.133-0.662,0.263-1.12,0.392c-0.459,0.128-0.991,0.242-1.594,0.344
	c-0.603,0.103-1.247,0.152-1.931,0.152c-1.185,0-2.224-0.165-3.116-0.496c-0.892-0.33-1.642-0.822-2.251-1.473
	c-0.608-0.652-1.068-1.47-1.378-2.452c-0.309-0.98-0.464-2.125-0.464-3.428c0-1.239,0.16-2.353,0.479-3.34
	c0.321-0.988,0.783-1.826,1.387-2.515c0.604-0.689,1.332-1.219,2.187-1.586c0.854-0.369,1.81-0.553,2.867-0.553
	c1.132,0,2.097,0.181,2.892,0.544c0.796,0.363,1.45,0.852,1.963,1.466c0.512,0.615,0.889,1.335,1.128,2.163
	c0.241,0.827,0.361,1.712,0.361,2.65v0.479H360.807z M358.146,138.179c0.031-1.39-0.277-2.478-0.926-3.269
	c-0.65-0.79-1.615-1.185-2.894-1.185c-0.655,0-1.23,0.122-1.725,0.368s-0.907,0.571-1.241,0.978
	c-0.333,0.405-0.591,0.878-0.772,1.418s-0.286,1.102-0.306,1.689H358.146z"/>
<path d="M375.191,144.602c0,0.182-0.006,0.34-0.018,0.473c-0.01,0.134-0.029,0.246-0.056,0.337c-0.027,0.091-0.06,0.172-0.097,0.239
	c-0.037,0.07-0.123,0.171-0.256,0.305c-0.134,0.135-0.361,0.3-0.682,0.496c-0.32,0.198-0.681,0.375-1.08,0.531
	c-0.401,0.154-0.837,0.279-1.307,0.375c-0.47,0.097-0.956,0.145-1.457,0.145c-1.036,0-1.955-0.172-2.756-0.513
	c-0.803-0.342-1.471-0.841-2.01-1.499c-0.54-0.655-0.951-1.463-1.235-2.419c-0.283-0.955-0.424-2.057-0.424-3.307
	c0-1.421,0.174-2.641,0.521-3.661c0.346-1.02,0.82-1.855,1.426-2.508c0.604-0.65,1.313-1.135,2.13-1.449
	c0.817-0.315,1.701-0.472,2.651-0.472c0.459,0,0.905,0.042,1.338,0.128c0.433,0.085,0.83,0.197,1.194,0.337
	c0.363,0.138,0.685,0.299,0.969,0.479c0.283,0.182,0.489,0.338,0.616,0.465c0.128,0.128,0.217,0.229,0.265,0.305
	c0.047,0.075,0.088,0.163,0.12,0.265c0.032,0.101,0.053,0.217,0.063,0.344c0.012,0.128,0.018,0.29,0.018,0.48
	c0,0.417-0.048,0.707-0.145,0.874c-0.097,0.166-0.214,0.248-0.353,0.248c-0.16,0-0.345-0.088-0.553-0.264
	c-0.208-0.177-0.473-0.371-0.793-0.586c-0.32-0.214-0.707-0.408-1.162-0.585c-0.452-0.176-0.989-0.264-1.609-0.264
	c-1.271,0-2.245,0.489-2.922,1.466c-0.678,0.978-1.018,2.396-1.018,4.253c0,0.93,0.088,1.744,0.263,2.443
	c0.178,0.7,0.436,1.284,0.777,1.754c0.342,0.471,0.763,0.821,1.258,1.051c0.496,0.229,1.064,0.344,1.706,0.344
	c0.607,0,1.143-0.098,1.602-0.289c0.458-0.192,0.857-0.403,1.193-0.634c0.337-0.229,0.619-0.437,0.849-0.624
	s0.409-0.281,0.537-0.281c0.074,0,0.139,0.021,0.191,0.064c0.055,0.043,0.1,0.115,0.137,0.217c0.038,0.101,0.063,0.229,0.081,0.384
	C375.184,144.205,375.191,144.389,375.191,144.602z"/>
<path d="M391.05,146.797c0,0.086-0.019,0.158-0.056,0.216c-0.038,0.06-0.104,0.11-0.2,0.152s-0.222,0.075-0.377,0.097
	c-0.154,0.021-0.344,0.031-0.567,0.031c-0.246,0-0.446-0.011-0.602-0.031c-0.155-0.021-0.277-0.055-0.368-0.097
	s-0.152-0.095-0.185-0.152s-0.048-0.132-0.048-0.216v-1.906c-0.823,0.908-1.634,1.57-2.436,1.986
	c-0.802,0.417-1.611,0.625-2.435,0.625c-0.961,0-1.771-0.16-2.426-0.481c-0.658-0.32-1.189-0.756-1.595-1.305
	c-0.406-0.55-0.697-1.191-0.873-1.922c-0.178-0.731-0.265-1.62-0.265-2.667v-8.747c0-0.086,0.02-0.157,0.057-0.217
	c0.037-0.059,0.109-0.111,0.216-0.159s0.245-0.08,0.417-0.096c0.171-0.017,0.383-0.024,0.641-0.024c0.256,0,0.47,0.008,0.641,0.024
	c0.172,0.016,0.307,0.048,0.409,0.096c0.101,0.048,0.174,0.101,0.215,0.159c0.044,0.06,0.064,0.131,0.064,0.217v8.395
	c0,0.843,0.061,1.519,0.185,2.025c0.122,0.509,0.309,0.94,0.561,1.299c0.251,0.357,0.567,0.636,0.953,0.833
	c0.385,0.197,0.833,0.297,1.347,0.297c0.661,0,1.32-0.235,1.978-0.706c0.658-0.47,1.354-1.158,2.092-2.067V132.38
	c0-0.086,0.019-0.157,0.057-0.217c0.037-0.059,0.109-0.111,0.215-0.159c0.106-0.048,0.244-0.08,0.409-0.096
	c0.166-0.017,0.383-0.024,0.647-0.024c0.258,0,0.471,0.008,0.643,0.024c0.171,0.016,0.305,0.048,0.4,0.096
	c0.097,0.048,0.168,0.101,0.216,0.159c0.049,0.06,0.071,0.131,0.071,0.217L391.05,146.797L391.05,146.797z"/>
<path d="M408.351,146.797c0,0.086-0.021,0.158-0.063,0.216c-0.044,0.06-0.112,0.11-0.209,0.152c-0.098,0.042-0.229,0.075-0.4,0.097
	c-0.172,0.021-0.385,0.031-0.642,0.031c-0.267,0-0.486-0.011-0.657-0.031c-0.171-0.021-0.303-0.055-0.4-0.097
	c-0.096-0.042-0.165-0.095-0.208-0.152c-0.042-0.058-0.063-0.132-0.063-0.216v-8.441c0-0.823-0.063-1.485-0.192-1.986
	c-0.128-0.503-0.315-0.935-0.561-1.298c-0.246-0.363-0.564-0.641-0.953-0.833c-0.391-0.193-0.843-0.289-1.354-0.289
	c-0.662,0-1.324,0.234-1.986,0.705c-0.662,0.47-1.356,1.158-2.083,2.066v10.076c0,0.086-0.021,0.158-0.063,0.216
	c-0.043,0.06-0.112,0.11-0.209,0.152s-0.229,0.075-0.401,0.097c-0.171,0.021-0.39,0.031-0.655,0.031
	c-0.257,0-0.471-0.011-0.642-0.031c-0.171-0.021-0.308-0.055-0.409-0.097c-0.101-0.042-0.172-0.095-0.209-0.152
	s-0.057-0.132-0.057-0.216V132.38c0-0.086,0.017-0.157,0.049-0.217c0.032-0.059,0.097-0.111,0.192-0.159
	c0.097-0.048,0.218-0.08,0.369-0.096c0.149-0.017,0.346-0.024,0.593-0.024c0.234,0,0.43,0.008,0.584,0.024
	c0.155,0.016,0.275,0.048,0.361,0.096c0.085,0.048,0.146,0.101,0.183,0.159c0.038,0.06,0.057,0.131,0.057,0.217v1.907
	c0.813-0.908,1.621-1.573,2.428-1.995c0.806-0.423,1.621-0.634,2.442-0.634c0.962,0,1.77,0.164,2.428,0.488
	c0.656,0.327,1.188,0.762,1.593,1.308c0.406,0.544,0.697,1.182,0.874,1.913c0.177,0.732,0.265,1.61,0.265,2.635V146.797
	L408.351,146.797z"/>
<path d="M425.522,146.797c0,0.086-0.019,0.159-0.056,0.224s-0.102,0.115-0.192,0.152c-0.092,0.038-0.212,0.067-0.36,0.089
	c-0.149,0.021-0.332,0.032-0.544,0.032c-0.225,0-0.412-0.011-0.563-0.032c-0.149-0.021-0.271-0.051-0.368-0.089
	c-0.097-0.036-0.165-0.088-0.208-0.152s-0.064-0.138-0.064-0.224v-1.906c-0.758,0.823-1.547,1.463-2.362,1.923
	c-0.817,0.459-1.712,0.688-2.685,0.688c-1.057,0-1.959-0.206-2.707-0.617c-0.747-0.411-1.353-0.966-1.818-1.666
	c-0.465-0.699-0.804-1.521-1.017-2.467c-0.215-0.944-0.321-1.94-0.321-2.987c0-1.239,0.134-2.357,0.401-3.356
	c0.268-0.998,0.662-1.85,1.186-2.555c0.522-0.706,1.172-1.247,1.946-1.626c0.773-0.379,1.668-0.569,2.684-0.569
	c0.843,0,1.614,0.185,2.313,0.553c0.7,0.369,1.392,0.911,2.075,1.627v-8.379c0-0.074,0.02-0.146,0.057-0.217
	c0.038-0.069,0.108-0.121,0.216-0.159c0.106-0.037,0.242-0.07,0.409-0.097c0.166-0.026,0.375-0.039,0.633-0.039
	c0.266,0,0.485,0.013,0.655,0.039c0.173,0.026,0.305,0.06,0.402,0.097c0.096,0.038,0.168,0.09,0.215,0.159
	c0.048,0.07,0.071,0.143,0.071,0.217v21.338H425.522z M422.864,136.656c-0.716-0.887-1.407-1.562-2.075-2.026
	c-0.667-0.465-1.363-0.696-2.09-0.696c-0.673,0-1.244,0.16-1.715,0.479c-0.469,0.32-0.852,0.742-1.145,1.267
	c-0.295,0.522-0.508,1.116-0.642,1.779c-0.134,0.661-0.201,1.333-0.201,2.017c0,0.728,0.058,1.437,0.17,2.131
	s0.307,1.312,0.584,1.851c0.278,0.539,0.646,0.971,1.105,1.297c0.46,0.325,1.036,0.49,1.73,0.49c0.352,0,0.691-0.049,1.017-0.145
	c0.326-0.098,0.659-0.257,1.001-0.48c0.342-0.223,0.699-0.516,1.074-0.873c0.373-0.356,0.768-0.798,1.186-1.321V136.656
	L422.864,136.656z"/>
<path d="M441.27,146.813c0,0.128-0.043,0.224-0.128,0.288c-0.087,0.064-0.204,0.114-0.353,0.145
	c-0.149,0.032-0.37,0.048-0.657,0.048c-0.277,0-0.498-0.016-0.664-0.048s-0.285-0.08-0.36-0.145s-0.112-0.16-0.112-0.288v-1.442
	c-0.63,0.673-1.333,1.196-2.106,1.57c-0.774,0.373-1.594,0.561-2.459,0.561c-0.759,0-1.444-0.1-2.058-0.297
	s-1.138-0.483-1.569-0.856c-0.433-0.373-0.77-0.833-1.01-1.378c-0.24-0.544-0.36-1.164-0.36-1.858c0-0.812,0.166-1.517,0.495-2.114
	c0.333-0.599,0.807-1.095,1.428-1.489c0.618-0.396,1.377-0.691,2.274-0.89c0.896-0.197,1.905-0.295,3.027-0.295h1.986v-1.123
	c0-0.555-0.06-1.046-0.178-1.473c-0.116-0.427-0.306-0.782-0.567-1.065s-0.601-0.497-1.017-0.641
	c-0.417-0.144-0.93-0.216-1.538-0.216c-0.651,0-1.236,0.078-1.754,0.232c-0.519,0.154-0.972,0.325-1.362,0.512
	c-0.39,0.188-0.716,0.357-0.978,0.513c-0.261,0.155-0.455,0.232-0.584,0.232c-0.085,0-0.16-0.021-0.223-0.063
	c-0.064-0.042-0.12-0.108-0.17-0.192c-0.048-0.087-0.083-0.195-0.103-0.329c-0.021-0.134-0.032-0.28-0.032-0.439
	c0-0.268,0.018-0.479,0.056-0.633c0.038-0.156,0.13-0.303,0.272-0.441c0.145-0.139,0.393-0.303,0.745-0.489
	c0.352-0.188,0.759-0.357,1.217-0.513c0.459-0.155,0.962-0.283,1.507-0.385c0.546-0.101,1.095-0.152,1.65-0.152
	c1.036,0,1.917,0.117,2.644,0.353c0.726,0.235,1.313,0.58,1.762,1.034c0.449,0.453,0.774,1.018,0.978,1.689
	c0.202,0.674,0.304,1.458,0.304,2.355v9.724H441.27z M438.643,140.229h-2.259c-0.726,0-1.355,0.062-1.89,0.185
	s-0.978,0.305-1.33,0.546c-0.353,0.238-0.611,0.527-0.776,0.863c-0.166,0.338-0.249,0.724-0.249,1.162
	c0,0.748,0.237,1.343,0.714,1.785c0.475,0.443,1.14,0.665,1.993,0.665c0.694,0,1.338-0.176,1.931-0.529
	c0.593-0.353,1.215-0.891,1.866-1.617V140.229z"/>
<path d="M454.55,133.324c0,0.235-0.006,0.434-0.017,0.594c-0.012,0.159-0.031,0.285-0.063,0.376c-0.032,0.09-0.073,0.16-0.12,0.208
	c-0.049,0.048-0.115,0.073-0.2,0.073c-0.087,0-0.189-0.025-0.313-0.073c-0.124-0.048-0.262-0.096-0.417-0.144
	c-0.154-0.048-0.328-0.094-0.52-0.136c-0.193-0.043-0.402-0.064-0.626-0.064c-0.267,0-0.529,0.053-0.784,0.16
	c-0.257,0.107-0.527,0.282-0.809,0.528c-0.282,0.247-0.58,0.571-0.89,0.978c-0.311,0.405-0.65,0.901-1.025,1.489v9.483
	c0,0.086-0.021,0.158-0.063,0.216c-0.043,0.06-0.112,0.11-0.209,0.152c-0.096,0.042-0.229,0.075-0.4,0.097
	c-0.17,0.021-0.39,0.031-0.657,0.031c-0.255,0-0.469-0.011-0.64-0.031c-0.171-0.021-0.308-0.055-0.41-0.097
	c-0.101-0.042-0.171-0.095-0.208-0.152s-0.057-0.132-0.057-0.216V132.38c0-0.086,0.017-0.157,0.048-0.217
	c0.032-0.059,0.097-0.111,0.193-0.159c0.096-0.048,0.218-0.08,0.368-0.096c0.15-0.017,0.347-0.024,0.592-0.024
	c0.235,0,0.431,0.008,0.585,0.024c0.155,0.016,0.275,0.048,0.362,0.096c0.085,0.048,0.146,0.101,0.183,0.159
	c0.038,0.06,0.057,0.131,0.057,0.217v2.098c0.396-0.576,0.767-1.047,1.113-1.409c0.348-0.363,0.676-0.649,0.985-0.857
	s0.617-0.353,0.922-0.432c0.305-0.08,0.61-0.121,0.92-0.121c0.139,0,0.297,0.01,0.473,0.025c0.178,0.016,0.36,0.045,0.552,0.087
	c0.193,0.043,0.367,0.092,0.521,0.144c0.155,0.054,0.264,0.108,0.329,0.16c0.064,0.054,0.106,0.104,0.129,0.151
	c0.021,0.049,0.039,0.11,0.057,0.186c0.016,0.075,0.025,0.184,0.031,0.328C454.547,132.885,454.55,133.08,454.55,133.324z"/>
<path d="M460.509,127.511c0,0.619-0.118,1.041-0.353,1.266c-0.235,0.225-0.668,0.336-1.298,0.336c-0.619,0-1.043-0.11-1.273-0.328
	c-0.23-0.219-0.345-0.634-0.345-1.242c0-0.619,0.117-1.041,0.352-1.266c0.235-0.225,0.668-0.336,1.299-0.336
	c0.619,0,1.043,0.108,1.272,0.327C460.393,126.488,460.509,126.901,460.509,127.511z M460.205,146.797
	c0,0.086-0.021,0.158-0.064,0.216c-0.043,0.06-0.111,0.11-0.209,0.152c-0.096,0.042-0.229,0.075-0.4,0.097
	c-0.171,0.021-0.39,0.031-0.656,0.031c-0.256,0-0.471-0.011-0.642-0.031c-0.171-0.021-0.307-0.055-0.409-0.097
	c-0.1-0.042-0.171-0.095-0.208-0.152s-0.057-0.132-0.057-0.216V132.38c0-0.075,0.02-0.144,0.057-0.207
	c0.037-0.064,0.107-0.118,0.208-0.16c0.102-0.043,0.238-0.075,0.409-0.098c0.171-0.02,0.385-0.031,0.642-0.031
	c0.267,0,0.486,0.01,0.656,0.031c0.171,0.022,0.305,0.054,0.4,0.098c0.098,0.042,0.166,0.096,0.209,0.16
	c0.043,0.063,0.064,0.132,0.064,0.207V146.797z"/>
<path d="M475.951,146.813c0,0.128-0.043,0.224-0.129,0.288s-0.204,0.114-0.352,0.145c-0.149,0.032-0.37,0.048-0.656,0.048
	c-0.278,0-0.5-0.016-0.665-0.048c-0.167-0.032-0.286-0.08-0.361-0.145c-0.074-0.064-0.112-0.16-0.112-0.288v-1.442
	c-0.63,0.673-1.332,1.196-2.106,1.57c-0.774,0.373-1.593,0.561-2.458,0.561c-0.759,0-1.444-0.1-2.059-0.297
	c-0.613-0.197-1.137-0.483-1.569-0.856s-0.769-0.833-1.01-1.378c-0.24-0.544-0.359-1.164-0.359-1.858
	c0-0.812,0.165-1.517,0.496-2.114c0.331-0.599,0.805-1.095,1.426-1.489c0.619-0.396,1.378-0.691,2.275-0.89
	c0.896-0.197,1.905-0.295,3.026-0.295h1.986v-1.123c0-0.555-0.059-1.046-0.176-1.473c-0.118-0.427-0.307-0.782-0.568-1.065
	c-0.263-0.283-0.601-0.497-1.017-0.641c-0.417-0.144-0.93-0.216-1.539-0.216c-0.65,0-1.235,0.078-1.754,0.232
	c-0.518,0.154-0.972,0.325-1.361,0.512c-0.39,0.188-0.716,0.357-0.978,0.513c-0.26,0.155-0.456,0.232-0.584,0.232
	c-0.086,0-0.161-0.021-0.224-0.063c-0.064-0.042-0.12-0.108-0.17-0.192c-0.048-0.087-0.082-0.195-0.103-0.329
	c-0.021-0.134-0.032-0.28-0.032-0.439c0-0.268,0.019-0.479,0.056-0.633c0.038-0.156,0.13-0.303,0.273-0.441s0.392-0.303,0.744-0.489
	c0.354-0.188,0.759-0.357,1.217-0.513c0.46-0.155,0.962-0.283,1.508-0.385c0.545-0.101,1.095-0.152,1.65-0.152
	c1.035,0,1.916,0.117,2.644,0.353c0.726,0.235,1.313,0.58,1.762,1.034c0.449,0.453,0.773,1.018,0.977,1.689
	c0.204,0.674,0.305,1.458,0.305,2.355v9.724H475.951z M473.323,140.229h-2.258c-0.726,0-1.355,0.062-1.891,0.185
	c-0.534,0.123-0.977,0.305-1.329,0.546c-0.353,0.238-0.611,0.527-0.777,0.863c-0.165,0.338-0.249,0.724-0.249,1.162
	c0,0.748,0.238,1.343,0.714,1.785c0.475,0.443,1.14,0.665,1.994,0.665c0.694,0,1.338-0.176,1.93-0.529
	c0.594-0.353,1.216-0.891,1.866-1.617V140.229z"/>
</svg>
