<?xml version="1.0" encoding="UTF-8"?>
<svg xmlns="http://www.w3.org/2000/svg" xmlns:xlink="http://www.w3.org/1999/xlink" width="125px" height="122px" viewBox="0 0 30 30" version="1.1">
<g id="surface1">
<path style=" stroke:none;fill-rule:nonzero;fill:rgb(70.980392%,0%,0%);fill-opacity:1;" d="M 0.144531 0.125 C 11.316406 0.125 23.683594 0.125 25.007812 0.652344 C 26.96875 1.4375 30.226562 3.851562 29.90625 8.175781 C 29.796875 9.652344 29.925781 11.988281 28.40625 13.898438 C 27.277344 15.320312 21.625 22.132812 21.445312 22.253906 C 21.265625 22.378906 26.828125 22.289062 28.625 22.378906 C 28.941406 22.394531 29.324219 22.542969 29.367188 23.421875 C 29.40625 24.289062 29.496094 27.714844 29.367188 29.140625 C 29.328125 29.558594 29.1875 30 27.984375 30.0625 C 26.785156 30.125 6.746094 30.0625 6.746094 30.0625 C 6.746094 30.0625 6.265625 29.9375 6.207031 29.445312 C 6.144531 28.957031 6.207031 7.253906 6.207031 7.253906 L 0.566406 7.253906 C 0.566406 7.253906 0.207031 7.253906 0.144531 6.761719 C 0.0859375 6.269531 0.144531 0.125 0.144531 0.125 Z M 0.144531 0.125 "/>
<path style=" stroke:none;fill-rule:nonzero;fill:rgb(100%,100%,100%);fill-opacity:1;" d="M 13.109375 7.316406 L 13.109375 21.578125 L 13.40625 21.578125 C 13.40625 21.578125 22.769531 9.898438 22.828125 9.40625 C 22.886719 8.914062 22.828125 7.992188 22.828125 7.992188 C 22.828125 7.992188 22.9375 7.308594 22.347656 7.316406 C 21.621094 7.324219 21.457031 7.316406 13.109375 7.316406 Z M 13.109375 7.316406 "/>
</g>
</svg>
