<?xml version="1.0" encoding="utf-8"?>
<!-- Generator: Adobe Illustrator 16.0.3, SVG Export Plug-In . SVG Version: 6.00 Build 0)  -->
<!DOCTYPE svg PUBLIC "-//W3C//DTD SVG 1.1//EN" "http://www.w3.org/Graphics/SVG/1.1/DTD/svg11.dtd">
<svg version="1.1" id="Capa_1" xmlns="http://www.w3.org/2000/svg" xmlns:xlink="http://www.w3.org/1999/xlink" x="0px" y="0px"
	 width="627.445px" height="196.5px" viewBox="0 0 627.445 196.5" enable-background="new 0 0 627.445 196.5" xml:space="preserve">
<g>
	<path fill="#E02B28" d="M36.5,42.75c46.55,0,98.083,0,103.587,2.151c8.17,3.193,21.746,13.016,20.413,30.599
		c-0.456,6.008,0.091,15.5-6.25,23.277c-4.702,5.768-28.25,33.473-29,33.973s22.435,0.146,29.917,0.5
		c1.312,0.063,2.917,0.667,3.083,4.25c0.164,3.531,0.539,17.462,0,23.25c-0.159,1.709-0.75,3.5-5.75,3.75s-88.5,0-88.5,0
		s-2-0.5-2.25-2.5s0-90.25,0-90.25h-23.5c0,0-1.5,0-1.75-2S36.5,42.75,36.5,42.75z"/>
	<circle fill="none" stroke="#000000" stroke-width="5" stroke-miterlimit="10" cx="99.353" cy="98.778" r="94.25"/>
	<path fill="#FFFFFF" d="M90.5,72v58h1.25c0,0,39-47.5,39.25-49.5s0-5.75,0-5.75s0.458-2.774-2-2.75
		C125.968,72.029,125.292,71.997,90.5,72z"/>
	<path d="M236.834,145.563c0,0.191-0.01,0.36-0.032,0.506c-0.021,0.145-0.059,0.264-0.111,0.359
		c-0.054,0.096-0.115,0.166-0.185,0.209c-0.069,0.041-0.146,0.063-0.232,0.063h-9.947c-0.246,0-0.478-0.083-0.697-0.249
		c-0.219-0.165-0.328-0.455-0.328-0.872v-18.487c0-0.415,0.109-0.706,0.328-0.872c0.219-0.164,0.452-0.248,0.697-0.248h9.835
		c0.085,0,0.163,0.022,0.232,0.064c0.07,0.042,0.126,0.111,0.168,0.208s0.077,0.216,0.104,0.358c0.026,0.146,0.04,0.324,0.04,0.537
		c0,0.193-0.013,0.36-0.04,0.506c-0.027,0.145-0.061,0.263-0.104,0.354c-0.042,0.091-0.099,0.156-0.168,0.199
		s-0.146,0.064-0.232,0.064h-8.106v6.504h6.952c0.085,0,0.163,0.023,0.232,0.073c0.069,0.048,0.127,0.113,0.176,0.2
		c0.048,0.084,0.083,0.202,0.104,0.354c0.021,0.147,0.032,0.326,0.032,0.527c0,0.191-0.011,0.357-0.032,0.496
		s-0.057,0.251-0.104,0.337c-0.048,0.086-0.106,0.146-0.176,0.185c-0.07,0.037-0.147,0.057-0.232,0.057h-6.952v7.417h8.218
		c0.086,0,0.163,0.021,0.232,0.063c0.07,0.045,0.131,0.109,0.185,0.199c0.053,0.092,0.091,0.208,0.111,0.354
		C236.824,145.17,236.834,145.35,236.834,145.563z"/>
	<path d="M250.066,142.376c0,0.735-0.137,1.394-0.409,1.97c-0.273,0.575-0.66,1.063-1.162,1.457
		c-0.502,0.396-1.101,0.694-1.794,0.897c-0.694,0.202-1.458,0.304-2.291,0.304c-0.513,0-1-0.039-1.467-0.119
		c-0.465-0.08-0.881-0.182-1.249-0.305c-0.369-0.122-0.681-0.252-0.938-0.385c-0.256-0.135-0.443-0.256-0.56-0.36
		c-0.118-0.106-0.204-0.256-0.256-0.448c-0.054-0.193-0.08-0.453-0.08-0.785c0-0.201,0.011-0.373,0.032-0.513
		c0.021-0.138,0.048-0.25,0.08-0.335c0.032-0.085,0.077-0.146,0.136-0.186c0.059-0.035,0.125-0.057,0.2-0.057
		c0.118,0,0.292,0.073,0.521,0.217c0.229,0.145,0.512,0.303,0.849,0.473c0.337,0.171,0.735,0.328,1.193,0.474
		c0.459,0.144,0.988,0.216,1.587,0.216c0.448,0,0.854-0.047,1.217-0.144c0.362-0.099,0.679-0.237,0.945-0.425
		c0.267-0.188,0.472-0.424,0.617-0.713s0.217-0.631,0.217-1.025c0-0.406-0.105-0.747-0.313-1.023
		c-0.209-0.277-0.483-0.522-0.825-0.738c-0.341-0.213-0.727-0.401-1.153-0.567c-0.428-0.165-0.868-0.339-1.322-0.521
		c-0.453-0.182-0.896-0.389-1.33-0.617c-0.432-0.229-0.819-0.51-1.161-0.84c-0.342-0.332-0.617-0.728-0.825-1.187
		c-0.208-0.46-0.313-1.01-0.313-1.649c0-0.565,0.109-1.106,0.328-1.625c0.219-0.52,0.547-0.973,0.985-1.362
		c0.437-0.39,0.984-0.702,1.641-0.938c0.658-0.234,1.422-0.353,2.299-0.353c0.384,0,0.77,0.03,1.153,0.097
		c0.385,0.063,0.732,0.145,1.042,0.239c0.31,0.097,0.573,0.2,0.792,0.313c0.218,0.111,0.385,0.211,0.497,0.295
		c0.112,0.086,0.188,0.16,0.224,0.225c0.039,0.064,0.064,0.139,0.081,0.217c0.016,0.08,0.031,0.18,0.048,0.297
		c0.016,0.117,0.024,0.262,0.024,0.434c0,0.181-0.009,0.339-0.024,0.472c-0.017,0.134-0.042,0.243-0.081,0.329
		c-0.037,0.086-0.083,0.146-0.136,0.184c-0.053,0.039-0.112,0.059-0.176,0.059c-0.096,0-0.235-0.061-0.417-0.178
		c-0.182-0.117-0.417-0.242-0.706-0.377c-0.288-0.134-0.627-0.259-1.018-0.375c-0.39-0.119-0.835-0.177-1.337-0.177
		c-0.448,0-0.843,0.052-1.186,0.152c-0.343,0.103-0.623,0.245-0.84,0.433c-0.221,0.188-0.386,0.41-0.498,0.665
		c-0.111,0.257-0.167,0.534-0.167,0.833c0,0.416,0.105,0.768,0.32,1.051c0.214,0.282,0.49,0.53,0.833,0.744
		c0.34,0.215,0.732,0.406,1.169,0.575c0.438,0.172,0.883,0.349,1.337,0.528c0.454,0.182,0.902,0.386,1.346,0.607
		c0.443,0.225,0.834,0.498,1.177,0.817c0.342,0.321,0.617,0.706,0.825,1.155C249.962,141.223,250.066,141.757,250.066,142.376z"/>
	<path d="M264.211,144.105c0,0.183-0.006,0.34-0.016,0.473c-0.011,0.134-0.029,0.244-0.057,0.336
		c-0.028,0.092-0.06,0.172-0.096,0.24c-0.038,0.07-0.123,0.171-0.255,0.306c-0.135,0.134-0.361,0.298-0.682,0.495
		s-0.682,0.373-1.082,0.529s-0.836,0.281-1.305,0.377c-0.47,0.097-0.956,0.144-1.458,0.144c-1.036,0-1.954-0.172-2.755-0.513
		c-0.802-0.342-1.471-0.84-2.011-1.497s-0.951-1.464-1.233-2.419c-0.284-0.955-0.424-2.059-0.424-3.309
		c0-1.42,0.174-2.641,0.521-3.66c0.347-1.021,0.823-1.855,1.425-2.508c0.604-0.652,1.313-1.136,2.13-1.449
		c0.817-0.315,1.701-0.473,2.65-0.473c0.459,0,0.906,0.043,1.338,0.127c0.433,0.086,0.831,0.198,1.193,0.338
		c0.363,0.139,0.686,0.299,0.969,0.479c0.283,0.181,0.488,0.336,0.617,0.465c0.128,0.128,0.217,0.229,0.265,0.306
		c0.048,0.075,0.089,0.162,0.12,0.264c0.032,0.102,0.054,0.217,0.063,0.345c0.011,0.128,0.017,0.288,0.017,0.479
		c0,0.416-0.048,0.707-0.145,0.875c-0.096,0.164-0.213,0.248-0.352,0.248c-0.16,0-0.345-0.09-0.554-0.265
		c-0.208-0.178-0.473-0.372-0.792-0.586c-0.319-0.213-0.707-0.407-1.162-0.584c-0.453-0.179-0.991-0.265-1.61-0.265
		c-1.271,0-2.246,0.488-2.923,1.466c-0.678,0.978-1.017,2.396-1.017,4.254c0,0.929,0.088,1.741,0.264,2.442
		c0.177,0.699,0.436,1.283,0.777,1.754c0.341,0.471,0.761,0.82,1.257,1.049c0.496,0.229,1.065,0.346,1.707,0.346
		c0.608,0,1.142-0.098,1.602-0.289c0.458-0.193,0.857-0.402,1.193-0.633c0.337-0.229,0.62-0.439,0.85-0.626
		c0.229-0.188,0.409-0.28,0.536-0.28c0.075,0,0.139,0.021,0.193,0.064c0.053,0.041,0.099,0.113,0.136,0.216
		c0.038,0.103,0.064,0.229,0.081,0.385S264.211,143.893,264.211,144.105z"/>
	<path d="M280.07,146.301c0,0.086-0.021,0.157-0.058,0.215c-0.037,0.061-0.104,0.11-0.2,0.152s-0.221,0.075-0.375,0.096
		c-0.155,0.021-0.346,0.033-0.569,0.033c-0.245,0-0.445-0.012-0.601-0.033c-0.154-0.021-0.277-0.054-0.369-0.096
		c-0.091-0.042-0.151-0.094-0.184-0.152c-0.031-0.058-0.048-0.131-0.048-0.215v-1.906c-0.822,0.908-1.634,1.57-2.436,1.986
		s-1.612,0.624-2.435,0.624c-0.961,0-1.771-0.159-2.427-0.479c-0.657-0.321-1.189-0.758-1.594-1.307
		c-0.406-0.549-0.697-1.189-0.873-1.921c-0.177-0.733-0.264-1.62-0.264-2.668v-8.746c0-0.086,0.018-0.157,0.056-0.216
		c0.038-0.061,0.109-0.111,0.216-0.16c0.106-0.049,0.246-0.08,0.417-0.097c0.171-0.017,0.385-0.022,0.641-0.022
		c0.256,0,0.471,0.008,0.641,0.022c0.172,0.017,0.308,0.048,0.408,0.097c0.103,0.049,0.175,0.102,0.217,0.16s0.064,0.13,0.064,0.216
		v8.394c0,0.845,0.061,1.521,0.184,2.027c0.123,0.508,0.31,0.939,0.563,1.297c0.249,0.357,0.567,0.637,0.952,0.834
		c0.385,0.197,0.833,0.297,1.346,0.297c0.662,0,1.322-0.235,1.979-0.705c0.656-0.471,1.354-1.158,2.091-2.067v-10.075
		c0-0.086,0.02-0.156,0.057-0.216c0.037-0.062,0.109-0.112,0.217-0.16c0.106-0.049,0.242-0.081,0.407-0.097
		c0.167-0.016,0.382-0.021,0.649-0.021c0.256,0,0.47,0.006,0.641,0.021c0.172,0.016,0.305,0.048,0.401,0.097
		c0.096,0.048,0.169,0.101,0.215,0.16c0.047,0.058,0.073,0.13,0.073,0.216v14.418h-0.002V146.301z"/>
	<path d="M297.259,138.467c0,0.418-0.106,0.713-0.314,0.891c-0.21,0.176-0.449,0.264-0.717,0.264h-9.494
		c0,0.801,0.079,1.521,0.24,2.162c0.161,0.642,0.429,1.191,0.806,1.648c0.374,0.459,0.863,0.813,1.465,1.059
		s1.336,0.369,2.205,0.369c0.687,0,1.298-0.057,1.834-0.17c0.537-0.111,1.001-0.237,1.394-0.375
		c0.392-0.141,0.714-0.266,0.964-0.377c0.254-0.111,0.445-0.168,0.572-0.168c0.075,0,0.141,0.02,0.201,0.057
		s0.104,0.094,0.136,0.169c0.032,0.075,0.059,0.178,0.074,0.312c0.017,0.135,0.023,0.297,0.023,0.489
		c0,0.14-0.006,0.259-0.016,0.358c-0.012,0.104-0.024,0.193-0.04,0.275c-0.017,0.077-0.044,0.151-0.08,0.215
		c-0.038,0.063-0.086,0.125-0.145,0.186c-0.059,0.059-0.232,0.154-0.521,0.288c-0.289,0.134-0.662,0.265-1.121,0.394
		c-0.459,0.127-0.991,0.242-1.595,0.344c-0.603,0.102-1.246,0.151-1.93,0.151c-1.186,0-2.224-0.165-3.116-0.495
		c-0.892-0.332-1.642-0.822-2.251-1.476c-0.609-0.651-1.068-1.47-1.378-2.45s-0.465-2.125-0.465-3.43c0-1.237,0.16-2.352,0.48-3.34
		c0.32-0.987,0.782-1.824,1.387-2.514c0.604-0.689,1.333-1.219,2.186-1.588c0.854-0.367,1.812-0.553,2.868-0.553
		c1.133,0,2.096,0.182,2.892,0.546c0.796,0.36,1.449,0.853,1.963,1.466c0.513,0.613,0.889,1.335,1.128,2.162
		c0.241,0.828,0.362,1.711,0.362,2.65v0.479L297.259,138.467L297.259,138.467z M294.599,137.682c0.032-1.39-0.276-2.479-0.927-3.269
		c-0.65-0.789-1.614-1.185-2.893-1.185c-0.655,0-1.23,0.123-1.725,0.369c-0.493,0.246-0.907,0.57-1.241,0.978
		c-0.333,0.405-0.591,0.878-0.772,1.417c-0.183,0.539-0.285,1.104-0.307,1.689H294.599L294.599,137.682z"/>
	<path d="M303.922,146.301c0,0.086-0.021,0.157-0.063,0.215c-0.042,0.061-0.111,0.11-0.207,0.152
		c-0.099,0.042-0.229,0.075-0.402,0.096c-0.171,0.021-0.389,0.033-0.656,0.033c-0.256,0-0.469-0.012-0.641-0.033
		c-0.171-0.021-0.309-0.054-0.409-0.096s-0.17-0.094-0.208-0.152c-0.038-0.058-0.057-0.131-0.057-0.215v-21.4
		c0-0.088,0.019-0.16,0.057-0.226s0.105-0.116,0.208-0.159c0.101-0.043,0.238-0.074,0.409-0.098
		c0.172-0.021,0.384-0.031,0.641-0.031c0.269,0,0.486,0.01,0.656,0.031c0.173,0.021,0.305,0.055,0.402,0.098
		c0.096,0.043,0.165,0.096,0.207,0.159c0.043,0.063,0.063,0.138,0.063,0.226V146.301z"/>
	<path d="M319.669,146.314c0,0.129-0.044,0.226-0.129,0.289c-0.086,0.063-0.203,0.113-0.354,0.146
		c-0.148,0.03-0.367,0.048-0.655,0.048c-0.277,0-0.498-0.018-0.665-0.048c-0.165-0.033-0.285-0.081-0.359-0.146
		c-0.075-0.063-0.112-0.16-0.112-0.289v-1.44c-0.63,0.672-1.333,1.196-2.104,1.569c-0.774,0.373-1.595,0.561-2.46,0.561
		c-0.758,0-1.443-0.1-2.059-0.296c-0.612-0.198-1.138-0.483-1.568-0.856c-0.434-0.373-0.771-0.834-1.009-1.377
		c-0.241-0.545-0.362-1.166-0.362-1.858c0-0.812,0.167-1.517,0.497-2.115c0.332-0.599,0.807-1.095,1.426-1.489
		c0.619-0.394,1.378-0.691,2.275-0.889c0.896-0.198,1.904-0.296,3.027-0.296h1.986v-1.121c0-0.556-0.06-1.046-0.178-1.476
		c-0.117-0.426-0.308-0.781-0.567-1.064c-0.262-0.282-0.602-0.495-1.018-0.641c-0.416-0.145-0.931-0.215-1.538-0.215
		c-0.651,0-1.235,0.076-1.753,0.23c-0.521,0.154-0.974,0.324-1.362,0.514c-0.389,0.188-0.716,0.356-0.978,0.512
		c-0.263,0.156-0.456,0.232-0.585,0.232c-0.085,0-0.159-0.021-0.225-0.064c-0.063-0.043-0.12-0.106-0.168-0.191
		c-0.048-0.086-0.083-0.193-0.104-0.329c-0.021-0.133-0.032-0.278-0.032-0.438c0-0.269,0.019-0.479,0.057-0.633
		c0.037-0.156,0.128-0.303,0.271-0.44c0.145-0.14,0.394-0.304,0.745-0.489c0.353-0.188,0.759-0.357,1.218-0.513
		c0.459-0.156,0.962-0.283,1.506-0.386c0.546-0.102,1.095-0.152,1.65-0.152c1.035,0,1.917,0.117,2.644,0.354
		c0.726,0.234,1.313,0.58,1.762,1.033c0.449,0.454,0.774,1.018,0.979,1.689c0.204,0.673,0.305,1.457,0.305,2.355v9.723h-0.003
		V146.314z M317.042,139.732h-2.259c-0.727,0-1.355,0.061-1.891,0.184c-0.532,0.123-0.978,0.305-1.329,0.546
		c-0.353,0.239-0.61,0.529-0.776,0.864c-0.166,0.337-0.249,0.725-0.249,1.16c0,0.748,0.238,1.344,0.713,1.787
		c0.477,0.443,1.141,0.664,1.995,0.664c0.693,0,1.337-0.176,1.931-0.528c0.592-0.353,1.215-0.892,1.865-1.616V139.732z"/>
	<path d="M344.723,142.871c0,0.738-0.137,1.395-0.408,1.973c-0.271,0.575-0.658,1.063-1.16,1.456s-1.101,0.693-1.794,0.897
		c-0.694,0.203-1.458,0.303-2.291,0.303c-0.513,0-1.001-0.038-1.467-0.119c-0.465-0.078-0.882-0.181-1.25-0.305
		c-0.367-0.121-0.681-0.25-0.938-0.385c-0.255-0.135-0.443-0.254-0.561-0.359c-0.118-0.107-0.203-0.256-0.257-0.447
		c-0.053-0.193-0.079-0.455-0.079-0.785c0-0.203,0.012-0.375,0.031-0.514c0.021-0.139,0.048-0.251,0.079-0.335
		c0.032-0.085,0.077-0.147,0.137-0.185c0.061-0.039,0.126-0.057,0.201-0.057c0.117,0,0.291,0.071,0.521,0.217
		c0.229,0.144,0.512,0.301,0.85,0.471c0.335,0.173,0.733,0.33,1.192,0.474c0.46,0.144,0.988,0.218,1.587,0.218
		c0.449,0,0.854-0.049,1.218-0.145c0.363-0.098,0.678-0.238,0.945-0.426c0.267-0.188,0.472-0.424,0.615-0.713
		c0.145-0.289,0.217-0.631,0.217-1.024c0-0.406-0.104-0.748-0.313-1.024c-0.208-0.277-0.482-0.523-0.825-0.738
		c-0.341-0.213-0.725-0.402-1.152-0.567c-0.429-0.165-0.867-0.338-1.321-0.521c-0.453-0.182-0.897-0.389-1.329-0.617
		c-0.433-0.229-0.82-0.51-1.161-0.842c-0.342-0.33-0.616-0.725-0.825-1.186c-0.209-0.46-0.312-1.009-0.312-1.648
		c0-0.566,0.107-1.108,0.327-1.627c0.22-0.518,0.548-0.972,0.984-1.361c0.438-0.391,0.985-0.702,1.644-0.938
		c0.655-0.236,1.423-0.354,2.299-0.354c0.384,0,0.768,0.031,1.153,0.098c0.385,0.064,0.729,0.143,1.041,0.239
		c0.31,0.097,0.572,0.2,0.793,0.313c0.219,0.11,0.385,0.209,0.497,0.297c0.109,0.084,0.186,0.158,0.223,0.223
		c0.038,0.063,0.063,0.137,0.08,0.216c0.018,0.081,0.032,0.181,0.05,0.297c0.016,0.117,0.022,0.263,0.022,0.433
		c0,0.183-0.009,0.34-0.022,0.473c-0.018,0.135-0.044,0.244-0.081,0.329c-0.037,0.086-0.084,0.146-0.137,0.187
		c-0.054,0.036-0.112,0.055-0.177,0.055c-0.097,0-0.234-0.06-0.416-0.176c-0.183-0.119-0.417-0.242-0.705-0.377
		c-0.288-0.133-0.627-0.259-1.018-0.375c-0.391-0.119-0.836-0.177-1.338-0.177c-0.449,0-0.844,0.052-1.186,0.151
		c-0.344,0.103-0.622,0.244-0.843,0.433c-0.218,0.188-0.385,0.409-0.495,0.665c-0.111,0.256-0.17,0.534-0.17,0.834
		c0,0.417,0.107,0.766,0.321,1.049c0.214,0.282,0.49,0.531,0.834,0.745c0.341,0.214,0.729,0.406,1.168,0.577
		c0.438,0.169,0.883,0.346,1.338,0.527c0.454,0.182,0.902,0.386,1.348,0.609c0.441,0.223,0.835,0.495,1.177,0.815
		c0.342,0.319,0.616,0.704,0.825,1.153S344.723,142.253,344.723,142.871z"/>
	<path d="M360.807,138.963c0,0.417-0.104,0.715-0.313,0.889c-0.209,0.178-0.448,0.266-0.715,0.266h-9.495
		c0,0.801,0.08,1.521,0.24,2.164c0.161,0.639,0.43,1.189,0.805,1.648s0.864,0.812,1.467,1.057c0.602,0.246,1.335,0.369,2.205,0.369
		c0.686,0,1.297-0.058,1.834-0.17c0.536-0.11,1.001-0.235,1.393-0.375c0.393-0.139,0.715-0.265,0.966-0.375
		c0.253-0.113,0.442-0.17,0.571-0.17c0.075,0,0.141,0.02,0.2,0.057c0.061,0.037,0.105,0.093,0.137,0.168
		c0.032,0.076,0.059,0.181,0.073,0.313c0.018,0.135,0.023,0.299,0.023,0.489c0,0.14-0.005,0.259-0.018,0.36
		c-0.011,0.102-0.022,0.193-0.04,0.271c-0.016,0.081-0.043,0.152-0.08,0.217c-0.036,0.065-0.085,0.125-0.143,0.185
		c-0.06,0.062-0.232,0.155-0.521,0.29c-0.288,0.133-0.662,0.263-1.12,0.392c-0.459,0.128-0.991,0.242-1.595,0.345
		c-0.603,0.103-1.247,0.151-1.931,0.151c-1.185,0-2.224-0.165-3.116-0.496c-0.892-0.329-1.642-0.821-2.251-1.474
		c-0.607-0.651-1.067-1.469-1.378-2.451c-0.309-0.98-0.464-2.125-0.464-3.428c0-1.239,0.16-2.354,0.479-3.34
		c0.32-0.988,0.782-1.826,1.387-2.516c0.604-0.689,1.332-1.219,2.187-1.586c0.854-0.369,1.811-0.553,2.867-0.553
		c1.132,0,2.097,0.181,2.893,0.544c0.796,0.362,1.449,0.853,1.963,1.466c0.512,0.615,0.889,1.335,1.128,2.163
		c0.24,0.827,0.36,1.712,0.36,2.649v0.479L360.807,138.963L360.807,138.963z M358.146,138.18c0.031-1.391-0.276-2.479-0.926-3.27
		c-0.649-0.79-1.614-1.186-2.894-1.186c-0.655,0-1.23,0.123-1.726,0.369c-0.494,0.245-0.906,0.57-1.24,0.977
		c-0.333,0.406-0.592,0.879-0.772,1.418c-0.181,0.541-0.286,1.103-0.306,1.689h7.863V138.18z"/>
	<path d="M375.191,144.602c0,0.183-0.007,0.34-0.019,0.474c-0.01,0.134-0.029,0.245-0.056,0.337
		c-0.027,0.091-0.061,0.172-0.097,0.238c-0.037,0.07-0.123,0.172-0.257,0.306c-0.134,0.135-0.36,0.3-0.682,0.496
		c-0.32,0.198-0.681,0.375-1.08,0.53c-0.401,0.154-0.837,0.279-1.307,0.375c-0.471,0.098-0.956,0.146-1.457,0.146
		c-1.036,0-1.955-0.172-2.756-0.513c-0.804-0.342-1.472-0.842-2.011-1.499c-0.54-0.655-0.951-1.464-1.234-2.419
		s-0.424-2.057-0.424-3.307c0-1.422,0.174-2.642,0.521-3.662c0.346-1.02,0.82-1.854,1.426-2.508c0.604-0.65,1.313-1.135,2.13-1.449
		c0.817-0.314,1.701-0.471,2.651-0.471c0.459,0,0.905,0.041,1.338,0.127s0.83,0.197,1.194,0.338
		c0.362,0.137,0.685,0.299,0.969,0.479c0.283,0.182,0.489,0.338,0.616,0.465c0.128,0.128,0.217,0.229,0.265,0.305
		c0.047,0.075,0.088,0.164,0.12,0.266c0.032,0.101,0.053,0.217,0.063,0.344c0.012,0.128,0.018,0.29,0.018,0.48
		c0,0.416-0.048,0.707-0.145,0.873c-0.098,0.166-0.215,0.248-0.354,0.248c-0.16,0-0.345-0.088-0.553-0.264
		c-0.208-0.177-0.474-0.371-0.793-0.586c-0.32-0.214-0.707-0.408-1.162-0.585c-0.452-0.177-0.989-0.265-1.609-0.265
		c-1.271,0-2.245,0.49-2.922,1.467c-0.678,0.979-1.018,2.396-1.018,4.253c0,0.93,0.088,1.743,0.263,2.442
		c0.178,0.701,0.436,1.285,0.777,1.754c0.342,0.472,0.763,0.822,1.258,1.052c0.496,0.229,1.063,0.344,1.706,0.344
		c0.606,0,1.143-0.099,1.602-0.289c0.458-0.192,0.857-0.403,1.193-0.634c0.337-0.229,0.619-0.438,0.849-0.624
		c0.23-0.187,0.409-0.281,0.537-0.281c0.074,0,0.139,0.021,0.191,0.063c0.055,0.043,0.1,0.115,0.137,0.218
		c0.038,0.101,0.063,0.229,0.081,0.384C375.184,144.205,375.191,144.389,375.191,144.602z"/>
	<path d="M391.05,146.797c0,0.086-0.019,0.158-0.056,0.217c-0.038,0.059-0.104,0.109-0.2,0.151s-0.222,0.075-0.377,0.097
		c-0.154,0.021-0.344,0.031-0.567,0.031c-0.246,0-0.445-0.012-0.602-0.031c-0.155-0.021-0.277-0.055-0.368-0.097
		s-0.152-0.095-0.185-0.151c-0.033-0.058-0.048-0.133-0.048-0.217v-1.906c-0.823,0.908-1.635,1.57-2.437,1.986
		c-0.802,0.417-1.611,0.625-2.435,0.625c-0.961,0-1.771-0.16-2.427-0.48c-0.657-0.32-1.188-0.756-1.595-1.306
		s-0.697-1.19-0.873-1.922c-0.178-0.731-0.265-1.62-0.265-2.667v-8.747c0-0.086,0.02-0.157,0.057-0.217s0.109-0.11,0.216-0.159
		c0.107-0.048,0.245-0.08,0.417-0.096c0.171-0.018,0.384-0.023,0.642-0.023c0.256,0,0.47,0.008,0.641,0.023
		c0.172,0.016,0.307,0.048,0.409,0.096c0.101,0.049,0.174,0.102,0.215,0.159c0.044,0.06,0.064,0.131,0.064,0.217v8.396
		c0,0.843,0.061,1.519,0.185,2.024c0.122,0.509,0.309,0.94,0.561,1.3c0.252,0.356,0.567,0.635,0.953,0.832s0.833,0.297,1.348,0.297
		c0.661,0,1.319-0.234,1.978-0.705s1.354-1.158,2.092-2.067V132.38c0-0.086,0.02-0.157,0.058-0.217
		c0.037-0.06,0.108-0.11,0.215-0.159c0.105-0.048,0.244-0.08,0.409-0.096c0.166-0.018,0.383-0.023,0.646-0.023
		c0.258,0,0.472,0.008,0.644,0.023c0.171,0.016,0.305,0.048,0.399,0.096c0.098,0.049,0.168,0.102,0.216,0.159
		c0.05,0.06,0.071,0.131,0.071,0.217L391.05,146.797L391.05,146.797z"/>
	<path d="M408.351,146.797c0,0.086-0.021,0.158-0.063,0.217c-0.044,0.059-0.112,0.109-0.209,0.151
		c-0.098,0.042-0.229,0.075-0.4,0.097c-0.172,0.021-0.385,0.031-0.642,0.031c-0.267,0-0.486-0.012-0.657-0.031
		c-0.171-0.021-0.303-0.055-0.399-0.097s-0.165-0.095-0.208-0.151c-0.042-0.059-0.063-0.133-0.063-0.217v-8.441
		c0-0.822-0.063-1.484-0.192-1.985c-0.128-0.503-0.314-0.935-0.561-1.298s-0.564-0.641-0.953-0.834
		c-0.391-0.192-0.843-0.288-1.354-0.288c-0.662,0-1.324,0.233-1.986,0.704s-1.356,1.158-2.083,2.066v10.076
		c0,0.086-0.021,0.158-0.063,0.217c-0.043,0.059-0.111,0.109-0.209,0.151c-0.097,0.042-0.229,0.075-0.4,0.097
		c-0.171,0.021-0.391,0.031-0.655,0.031c-0.257,0-0.471-0.012-0.642-0.031c-0.171-0.021-0.309-0.055-0.409-0.097
		c-0.102-0.042-0.172-0.095-0.209-0.151c-0.037-0.058-0.058-0.133-0.058-0.217V132.38c0-0.086,0.018-0.157,0.05-0.217
		c0.031-0.06,0.097-0.11,0.191-0.159c0.098-0.048,0.218-0.08,0.369-0.096c0.149-0.018,0.346-0.023,0.593-0.023
		c0.234,0,0.431,0.008,0.584,0.023c0.155,0.016,0.275,0.048,0.361,0.096c0.085,0.049,0.146,0.102,0.183,0.159
		c0.038,0.06,0.058,0.131,0.058,0.217v1.907c0.813-0.908,1.621-1.573,2.428-1.995c0.806-0.423,1.621-0.634,2.442-0.634
		c0.962,0,1.77,0.164,2.428,0.488c0.656,0.326,1.188,0.762,1.593,1.308c0.406,0.544,0.697,1.183,0.874,1.913
		c0.177,0.732,0.265,1.609,0.265,2.635v8.795H408.351z"/>
	<path d="M425.522,146.797c0,0.086-0.02,0.159-0.057,0.225c-0.037,0.064-0.102,0.115-0.191,0.151
		c-0.093,0.038-0.213,0.067-0.36,0.089c-0.149,0.021-0.332,0.032-0.544,0.032c-0.225,0-0.412-0.011-0.563-0.032
		c-0.148-0.021-0.271-0.051-0.367-0.089c-0.098-0.036-0.165-0.088-0.208-0.151c-0.043-0.064-0.064-0.139-0.064-0.225v-1.906
		c-0.758,0.823-1.547,1.463-2.362,1.924c-0.816,0.459-1.712,0.688-2.685,0.688c-1.057,0-1.959-0.206-2.707-0.617
		c-0.747-0.41-1.354-0.966-1.818-1.666c-0.465-0.699-0.804-1.521-1.017-2.467c-0.215-0.943-0.321-1.939-0.321-2.986
		c0-1.24,0.134-2.357,0.401-3.356c0.268-0.998,0.662-1.851,1.186-2.556c0.522-0.705,1.172-1.246,1.946-1.625
		c0.773-0.379,1.668-0.569,2.684-0.569c0.844,0,1.614,0.185,2.313,0.553c0.7,0.369,1.392,0.911,2.075,1.627v-8.379
		c0-0.073,0.02-0.146,0.057-0.217c0.038-0.069,0.108-0.121,0.216-0.159c0.106-0.037,0.242-0.07,0.409-0.098
		c0.166-0.025,0.375-0.039,0.633-0.039c0.267,0,0.485,0.014,0.655,0.039c0.173,0.027,0.305,0.061,0.402,0.098
		c0.096,0.038,0.168,0.09,0.215,0.159c0.048,0.069,0.071,0.144,0.071,0.217v21.338L425.522,146.797L425.522,146.797z
		 M422.864,136.656c-0.716-0.887-1.407-1.563-2.075-2.026c-0.667-0.465-1.363-0.696-2.09-0.696c-0.673,0-1.244,0.16-1.715,0.479
		c-0.47,0.319-0.853,0.741-1.146,1.267c-0.295,0.522-0.508,1.116-0.642,1.779c-0.134,0.661-0.201,1.333-0.201,2.018
		c0,0.728,0.058,1.437,0.17,2.131c0.112,0.693,0.307,1.312,0.584,1.851c0.278,0.539,0.646,0.972,1.105,1.297
		c0.46,0.325,1.035,0.49,1.729,0.49c0.353,0,0.691-0.05,1.018-0.146c0.325-0.098,0.658-0.256,1.001-0.479
		c0.342-0.224,0.698-0.517,1.073-0.873c0.373-0.356,0.769-0.798,1.187-1.321L422.864,136.656L422.864,136.656z"/>
	<path d="M441.27,146.813c0,0.129-0.043,0.225-0.128,0.289c-0.087,0.063-0.203,0.113-0.353,0.145s-0.37,0.048-0.657,0.048
		c-0.277,0-0.498-0.017-0.664-0.048c-0.166-0.032-0.285-0.08-0.359-0.145c-0.075-0.065-0.112-0.16-0.112-0.289v-1.441
		c-0.63,0.673-1.333,1.195-2.106,1.57c-0.773,0.373-1.594,0.561-2.459,0.561c-0.759,0-1.443-0.1-2.058-0.297
		s-1.138-0.482-1.569-0.855c-0.433-0.373-0.77-0.834-1.01-1.379c-0.24-0.543-0.36-1.164-0.36-1.857c0-0.813,0.166-1.518,0.495-2.114
		c0.333-0.599,0.808-1.095,1.429-1.489c0.617-0.396,1.377-0.691,2.273-0.89c0.896-0.197,1.905-0.295,3.027-0.295h1.985v-1.123
		c0-0.556-0.06-1.046-0.178-1.474c-0.116-0.426-0.306-0.781-0.566-1.064c-0.262-0.283-0.602-0.497-1.018-0.641
		c-0.417-0.145-0.93-0.217-1.538-0.217c-0.65,0-1.235,0.078-1.754,0.232s-0.972,0.324-1.362,0.512
		c-0.39,0.188-0.716,0.357-0.978,0.514c-0.261,0.154-0.455,0.231-0.584,0.231c-0.085,0-0.16-0.021-0.223-0.063
		c-0.064-0.041-0.12-0.107-0.17-0.191c-0.049-0.087-0.083-0.195-0.104-0.329s-0.032-0.28-0.032-0.438
		c0-0.269,0.019-0.479,0.057-0.633c0.038-0.156,0.13-0.304,0.271-0.441c0.146-0.139,0.394-0.303,0.745-0.489
		c0.352-0.188,0.759-0.356,1.217-0.513c0.459-0.155,0.962-0.283,1.507-0.385c0.547-0.102,1.096-0.152,1.65-0.152
		c1.036,0,1.917,0.117,2.644,0.354c0.727,0.234,1.313,0.58,1.763,1.033s0.773,1.018,0.978,1.689
		c0.202,0.674,0.304,1.457,0.304,2.354v9.724h-0.003V146.813z M438.643,140.229h-2.259c-0.726,0-1.354,0.063-1.89,0.186
		s-0.979,0.305-1.33,0.546c-0.354,0.237-0.611,0.526-0.776,0.862c-0.166,0.339-0.249,0.725-0.249,1.162
		c0,0.748,0.237,1.344,0.714,1.785c0.476,0.443,1.141,0.666,1.993,0.666c0.694,0,1.338-0.176,1.932-0.529
		c0.593-0.354,1.215-0.891,1.865-1.617V140.229z"/>
	<path d="M454.55,133.324c0,0.234-0.006,0.434-0.017,0.594c-0.013,0.159-0.031,0.285-0.063,0.376
		c-0.031,0.091-0.072,0.16-0.12,0.208c-0.049,0.048-0.114,0.073-0.199,0.073c-0.087,0-0.189-0.025-0.313-0.073
		s-0.262-0.096-0.417-0.145c-0.154-0.047-0.328-0.094-0.52-0.135c-0.193-0.043-0.402-0.064-0.626-0.064
		c-0.268,0-0.529,0.053-0.784,0.16c-0.257,0.106-0.527,0.281-0.81,0.527c-0.281,0.248-0.58,0.571-0.89,0.979
		c-0.311,0.404-0.65,0.9-1.025,1.488v9.483c0,0.086-0.021,0.158-0.063,0.216c-0.043,0.061-0.112,0.11-0.209,0.152
		c-0.096,0.042-0.229,0.074-0.4,0.098c-0.17,0.02-0.39,0.03-0.657,0.03c-0.255,0-0.469-0.011-0.64-0.03
		c-0.171-0.021-0.308-0.056-0.41-0.098c-0.101-0.042-0.171-0.096-0.208-0.152s-0.057-0.132-0.057-0.216V132.38
		c0-0.086,0.017-0.157,0.048-0.217c0.032-0.06,0.097-0.11,0.193-0.159c0.096-0.048,0.218-0.08,0.368-0.096
		c0.149-0.018,0.347-0.023,0.592-0.023c0.234,0,0.431,0.008,0.585,0.023c0.155,0.016,0.274,0.048,0.361,0.096
		c0.085,0.049,0.146,0.102,0.184,0.159c0.038,0.06,0.057,0.131,0.057,0.217v2.099c0.396-0.576,0.768-1.047,1.113-1.41
		c0.348-0.362,0.676-0.648,0.985-0.856c0.309-0.208,0.616-0.353,0.922-0.433c0.305-0.079,0.609-0.12,0.92-0.12
		c0.139,0,0.297,0.01,0.473,0.024c0.178,0.017,0.36,0.045,0.552,0.088c0.193,0.043,0.367,0.092,0.521,0.144
		c0.155,0.054,0.264,0.108,0.329,0.16c0.063,0.054,0.105,0.104,0.129,0.151c0.021,0.049,0.039,0.109,0.057,0.186
		c0.017,0.074,0.025,0.184,0.031,0.328C454.547,132.885,454.55,133.08,454.55,133.324z"/>
	<path d="M460.509,127.512c0,0.618-0.118,1.041-0.353,1.266c-0.235,0.225-0.668,0.336-1.298,0.336c-0.619,0-1.043-0.11-1.273-0.328
		c-0.23-0.219-0.345-0.635-0.345-1.242c0-0.619,0.117-1.041,0.352-1.266c0.235-0.225,0.668-0.336,1.299-0.336
		c0.619,0,1.043,0.107,1.272,0.326C460.393,126.488,460.509,126.9,460.509,127.512z M460.205,146.797
		c0,0.086-0.021,0.158-0.064,0.217s-0.11,0.109-0.209,0.151c-0.096,0.042-0.229,0.075-0.399,0.097s-0.391,0.031-0.656,0.031
		c-0.256,0-0.471-0.012-0.642-0.031c-0.171-0.021-0.308-0.055-0.409-0.097c-0.101-0.042-0.171-0.095-0.208-0.151
		c-0.037-0.058-0.058-0.133-0.058-0.217V132.38c0-0.075,0.021-0.144,0.058-0.207s0.106-0.118,0.208-0.159
		c0.102-0.043,0.238-0.076,0.409-0.099c0.171-0.021,0.385-0.031,0.642-0.031c0.267,0,0.486,0.011,0.656,0.031
		c0.171,0.022,0.305,0.054,0.399,0.099c0.099,0.041,0.166,0.096,0.209,0.159s0.064,0.132,0.064,0.207V146.797z"/>
	<path d="M475.951,146.813c0,0.129-0.043,0.225-0.129,0.289c-0.086,0.063-0.204,0.113-0.353,0.145s-0.37,0.048-0.655,0.048
		c-0.278,0-0.5-0.017-0.665-0.048c-0.167-0.032-0.286-0.08-0.361-0.145c-0.074-0.064-0.112-0.16-0.112-0.289v-1.441
		c-0.63,0.673-1.332,1.195-2.105,1.57c-0.774,0.373-1.594,0.561-2.458,0.561c-0.76,0-1.444-0.1-2.06-0.297
		c-0.612-0.197-1.137-0.482-1.568-0.855c-0.433-0.373-0.77-0.834-1.011-1.379c-0.239-0.543-0.358-1.164-0.358-1.857
		c0-0.813,0.165-1.518,0.496-2.114c0.331-0.599,0.805-1.095,1.426-1.489c0.619-0.396,1.378-0.691,2.274-0.89
		c0.896-0.197,1.905-0.295,3.026-0.295h1.986v-1.123c0-0.556-0.06-1.046-0.176-1.474c-0.118-0.426-0.308-0.781-0.568-1.064
		c-0.263-0.283-0.602-0.497-1.017-0.641c-0.418-0.145-0.931-0.217-1.539-0.217c-0.65,0-1.235,0.078-1.755,0.232
		c-0.518,0.154-0.972,0.324-1.36,0.512c-0.391,0.188-0.716,0.357-0.979,0.514c-0.26,0.154-0.456,0.231-0.584,0.231
		c-0.086,0-0.161-0.021-0.224-0.063c-0.064-0.041-0.12-0.107-0.17-0.191c-0.048-0.087-0.082-0.195-0.104-0.329
		c-0.021-0.134-0.031-0.28-0.031-0.438c0-0.269,0.019-0.479,0.056-0.633c0.038-0.156,0.13-0.304,0.273-0.441
		c0.143-0.139,0.392-0.303,0.743-0.489c0.354-0.188,0.76-0.356,1.218-0.513c0.46-0.155,0.962-0.283,1.508-0.385
		c0.545-0.102,1.095-0.152,1.649-0.152c1.035,0,1.916,0.117,2.645,0.354c0.726,0.234,1.313,0.58,1.762,1.033
		s0.773,1.018,0.978,1.689c0.203,0.674,0.305,1.457,0.305,2.354v9.724h-0.003V146.813z M473.323,140.229h-2.258
		c-0.727,0-1.355,0.063-1.892,0.186c-0.534,0.123-0.977,0.305-1.329,0.546c-0.353,0.237-0.61,0.526-0.776,0.862
		c-0.165,0.339-0.249,0.725-0.249,1.162c0,0.748,0.237,1.344,0.714,1.785c0.475,0.443,1.14,0.666,1.994,0.666
		c0.693,0,1.338-0.176,1.93-0.529c0.594-0.354,1.216-0.891,1.866-1.617V140.229L473.323,140.229z"/>
	<text transform="matrix(1 0 0 1 206.4229 113.666)"><tspan x="0" y="0" font-family="'Calibri'" font-size="90">Técnica </tspan><tspan x="296.147" y="0" fill="#E02B28" font-family="'Calibri'" font-size="90">N°2</tspan><tspan x="0" y="108" font-family="'Calibri'" font-size="90"> </tspan></text>
	<path fill="none" d="M76.56,42.801"/>
	<path fill="none" d="M46.889,42.801"/>
</g>
<rect x="231.223" y="162.75" fill="none" width="237" height="46"/>
</svg>
